<svg xmlns="http://www.w3.org/2000/svg" xmlns:xlink="http://www.w3.org/1999/xlink" width="500" zoomAndPan="magnify" viewBox="0 0 375 374.999991" height="500" preserveAspectRatio="xMidYMid meet" version="1.0"><defs><clipPath id="83973e5e67"><path d="M 13 10.703125 L 375 10.703125 L 375 286 L 13 286 Z M 13 10.703125 " clip-rule="nonzero"/></clipPath><clipPath id="c0c2c126ba"><path d="M 0 136 L 342 136 L 342 366.953125 L 0 366.953125 Z M 0 136 " clip-rule="nonzero"/></clipPath><clipPath id="30356ac5f5"><path d="M 0 136 L 343 136 L 343 366.953125 L 0 366.953125 Z M 0 136 " clip-rule="nonzero"/></clipPath></defs><rect x="-37.5" width="450" fill="#ffffff" y="-37.499999" height="449.999989" fill-opacity="1"/><rect x="-37.5" width="450" fill="#ffffff" y="-37.499999" height="449.999989" fill-opacity="1"/><path fill="#fd8223" d="M 369.058594 157.699219 L 149.761719 283.875 L 149.363281 282.878906 C 147.03125 277.121094 140.769531 273.277344 133.414062 273.039062 C 125.4375 272.800781 117.703125 277.023438 114.613281 283.355469 L 113.894531 284.808594 L 14.414062 165.226562 L 16.40625 165.226562 C 24.621094 165.546875 32.355469 161.085938 34.867188 154.613281 C 37.378906 148.140625 33.8125 140.988281 26.296875 138.0625 L 24.800781 137.484375 L 243.5625 11.863281 L 243.242188 13.65625 C 242.046875 20.328125 246.988281 26.644531 254.527344 28.039062 C 256.601562 28.382812 258.675781 28.386719 260.75 28.046875 C 262.828125 27.703125 264.792969 27.039062 266.648438 26.046875 C 268.523438 25.140625 270.140625 23.902344 271.503906 22.324219 C 272.863281 20.75 273.859375 18.96875 274.480469 16.984375 L 275 15.113281 L 374.082031 134.214844 L 372.089844 134.214844 C 369.996094 134.113281 367.941406 134.355469 365.933594 134.949219 C 363.921875 135.546875 362.066406 136.457031 360.367188 137.683594 C 358.980469 138.613281 357.847656 139.789062 356.972656 141.210938 C 356.09375 142.632812 355.550781 144.171875 355.34375 145.828125 C 354.964844 151.285156 359.949219 156.246094 366.925781 157.378906 Z M 369.058594 157.699219 " fill-opacity="1" fill-rule="nonzero"/><path fill="#ffd432" d="M 328.949219 139.554688 C 331.445312 137.734375 334.234375 136.738281 337.320312 136.566406 L 339.3125 136.425781 L 260.464844 41.742188 L 259.808594 43.175781 C 259.148438 44.511719 258.289062 45.710938 257.234375 46.765625 C 256.179688 47.824219 254.984375 48.683594 253.648438 49.347656 C 252.015625 50.203125 250.285156 50.777344 248.464844 51.066406 C 246.640625 51.355469 244.820312 51.347656 243.003906 51.042969 C 237.242188 49.945312 233.035156 45.484375 233.152344 40.445312 L 233.152344 38.695312 L 57.496094 139.613281 L 59.171875 140.449219 C 64.714844 143.21875 67.144531 148.578125 65.152344 153.753906 C 63.15625 158.933594 57.476562 162.4375 51.078125 162.835938 L 49.082031 162.957031 L 128.390625 258.378906 L 129.125 257.246094 C 130.003906 256.027344 131.019531 254.933594 132.167969 253.964844 C 133.320312 252.996094 134.570312 252.183594 135.921875 251.523438 C 137.273438 250.863281 138.683594 250.378906 140.15625 250.070312 C 141.628906 249.761719 143.113281 249.636719 144.617188 249.695312 C 145.949219 249.671875 147.265625 249.824219 148.558594 250.152344 C 149.851562 250.476562 151.078125 250.96875 152.242188 251.625 C 153.402344 252.277344 154.457031 253.074219 155.40625 254.011719 C 156.355469 254.949219 157.164062 255.992188 157.835938 257.144531 L 158.3125 258.082031 L 334.847656 156.503906 L 332.617188 155.847656 C 327.589844 154.371094 324.28125 150.507812 324.640625 146.464844 C 324.832031 145.058594 325.304688 143.753906 326.054688 142.550781 C 326.804688 141.347656 327.769531 140.347656 328.949219 139.554688 Z M 78.546875 161.445312 L 79.046875 162.300781 Z M 127.792969 220.996094 L 127.234375 220.257812 L 127.769531 221.09375 Z M 144.617188 241.210938 L 144.058594 240.476562 C 144.058594 240.441406 144.058594 240.410156 144.058594 240.375 Z M 246.011719 58.75 L 246.550781 59.488281 L 246.550781 59.667969 L 246.011719 58.828125 Z M 248.902344 107.308594 L 249.382812 107.945312 C 249.382812 107.945312 249.382812 107.945312 249.203125 108.085938 L 241.765625 112.269531 L 257.394531 131.585938 C 257.394531 131.585938 257.394531 131.765625 257.136719 131.847656 L 256.4375 132.246094 C 256.199219 132.382812 256.101562 132.34375 255.980469 132.246094 L 240.429688 113.085938 L 233.074219 117.207031 C 232.875 117.328125 232.734375 117.207031 232.574219 117.085938 L 232.15625 116.492188 C 232.207031 116.433594 232.265625 116.394531 232.335938 116.371094 L 248.425781 107.328125 C 248.765625 107.089844 248.882812 107.25 248.941406 107.308594 Z M 229.40625 119.257812 L 215.449219 127.105469 L 222.367188 135.652344 L 234.332031 128.878906 C 234.589844 128.71875 234.730469 128.878906 234.808594 128.878906 L 235.285156 129.457031 C 235.285156 129.457031 235.285156 129.574219 235.128906 129.65625 L 222.988281 136.46875 L 230.382812 145.609375 L 244.339844 137.820312 C 244.636719 137.640625 244.738281 137.820312 244.816406 137.820312 L 245.253906 138.417969 C 245.253906 138.417969 245.253906 138.417969 245.074219 138.558594 L 230.0625 147.042969 C 229.746094 147.203125 229.726562 147.203125 229.566406 147.042969 L 213.378906 127.125 C 213.378906 127.125 213.378906 127.125 213.578125 126.945312 L 228.589844 118.5 C 228.660156 118.480469 228.734375 118.480469 228.808594 118.5 C 228.917969 118.507812 229.003906 118.554688 229.066406 118.640625 L 229.527344 119.257812 C 229.527344 119.257812 229.585938 119.140625 229.445312 119.21875 Z M 224.480469 150.191406 C 224.4375 150.242188 224.386719 150.28125 224.320312 150.308594 L 223.125 150.96875 C 222.839844 151.136719 222.535156 151.183594 222.207031 151.105469 L 200.855469 148.4375 L 209.171875 158.714844 C 209.128906 158.824219 209.054688 158.902344 208.953125 158.953125 L 208.171875 159.390625 C 207.972656 159.492188 207.855469 159.53125 207.695312 159.390625 L 191.746094 139.476562 L 191.746094 139.316406 C 191.746094 139.316406 191.746094 139.175781 191.945312 139.078125 L 192.625 138.699219 C 192.71875 138.632812 192.828125 138.597656 192.941406 138.597656 C 193.070312 138.601562 193.167969 138.65625 193.242188 138.757812 L 200.917969 148.238281 L 206 131.367188 C 206.09375 131.136719 206.253906 130.964844 206.480469 130.851562 L 207.535156 130.253906 C 207.621094 130.164062 207.707031 130.164062 207.796875 130.253906 L 202.390625 147.421875 Z M 187 146.367188 C 187 146.367188 187 146.566406 186.5625 146.503906 C 184.839844 146.328125 183.128906 146.40625 181.429688 146.746094 C 179.726562 147.085938 178.117188 147.667969 176.59375 148.496094 C 175.070312 149.257812 173.769531 150.300781 172.695312 151.625 C 171.621094 152.949219 170.867188 154.4375 170.433594 156.085938 C 170.230469 156.835938 170.125 157.601562 170.109375 158.378906 C 170.09375 159.160156 170.171875 159.925781 170.347656 160.683594 C 170.519531 161.445312 170.785156 162.171875 171.136719 162.863281 C 171.488281 163.558594 171.917969 164.199219 172.429688 164.789062 C 173.546875 166.117188 174.875 167.183594 176.410156 167.996094 C 177.941406 168.808594 179.574219 169.308594 181.300781 169.488281 C 183.132812 169.773438 184.960938 169.742188 186.78125 169.402344 C 188.605469 169.058594 190.320312 168.425781 191.925781 167.5 C 193.304688 166.71875 194.511719 165.726562 195.539062 164.523438 C 196.566406 163.316406 197.355469 161.972656 197.90625 160.488281 C 197.953125 160.347656 198.046875 160.246094 198.1875 160.1875 L 199.441406 160.40625 C 199.441406 160.40625 199.441406 160.40625 199.441406 160.546875 C 198.894531 162.25 198.039062 163.78125 196.875 165.136719 C 195.707031 166.496094 194.324219 167.574219 192.722656 168.375 C 190.914062 169.410156 188.984375 170.121094 186.933594 170.511719 C 184.882812 170.902344 182.824219 170.945312 180.761719 170.644531 C 178.824219 170.484375 176.988281 169.953125 175.261719 169.058594 C 173.535156 168.167969 172.042969 166.976562 170.792969 165.488281 C 170.242188 164.835938 169.78125 164.125 169.410156 163.359375 C 169.035156 162.59375 168.761719 161.792969 168.585938 160.957031 C 168.414062 160.125 168.34375 159.28125 168.378906 158.429688 C 168.417969 157.578125 168.554688 156.742188 168.800781 155.925781 C 169.324219 154.113281 170.191406 152.484375 171.398438 151.03125 C 172.605469 149.582031 174.050781 148.429688 175.738281 147.582031 C 178.613281 146.003906 181.6875 145.25 184.96875 145.308594 C 185.605469 145.308594 186.242188 145.308594 186.960938 145.308594 C 187.160156 145.308594 187.222656 145.308594 187.242188 145.507812 Z M 172.546875 179.347656 C 172.492188 179.414062 172.425781 179.46875 172.347656 179.507812 L 171.550781 179.964844 C 171.3125 180.105469 171.230469 180.085938 171.074219 179.964844 L 154.90625 159.871094 L 155.902344 159.273438 C 155.980469 159.25 156.0625 159.25 156.140625 159.273438 C 156.191406 159.25 156.246094 159.246094 156.300781 159.253906 Z M 135.6875 230.515625 L 135.148438 229.78125 L 135.6875 230.617188 Z M 134.488281 172.558594 C 134.351562 172.558594 134.191406 172.714844 133.972656 172.4375 L 133.550781 171.878906 C 133.601562 171.820312 133.660156 171.773438 133.730469 171.742188 L 149.839844 162.699219 C 150.121094 162.519531 150.238281 162.699219 150.320312 162.699219 L 150.777344 163.335938 C 150.777344 163.335938 150.777344 163.335938 150.597656 163.476562 L 143.160156 167.65625 L 158.792969 187.136719 C 158.792969 187.136719 158.792969 187.234375 158.53125 187.335938 L 157.875 187.714844 C 157.78125 187.734375 157.6875 187.734375 157.59375 187.714844 C 157.507812 187.703125 157.433594 187.664062 157.375 187.59375 L 141.847656 168.433594 Z M 257.535156 72.492188 C 257.527344 72.460938 257.527344 72.425781 257.535156 72.394531 L 258.054688 73.230469 Z M 282.394531 102.191406 L 282.894531 103.046875 Z M 315.789062 142.660156 L 315.25 141.925781 L 315.789062 142.761719 Z M 315.789062 142.660156 " fill-opacity="1" fill-rule="nonzero"/><g clip-path="url(#83973e5e67)"><path fill="#1b1817" d="M 269.398438 89.085938 C 269.210938 88.867188 269.121094 88.613281 269.117188 88.328125 L 269.117188 88.167969 C 269.199219 87.746094 269.425781 87.429688 269.796875 87.210938 C 270.121094 87.015625 270.46875 86.945312 270.84375 86.996094 C 271.21875 87.050781 271.53125 87.214844 271.789062 87.492188 L 274.859375 91.15625 C 275.0625 91.421875 275.144531 91.71875 275.101562 92.050781 C 275.019531 92.46875 274.792969 92.78125 274.421875 92.988281 C 274.167969 93.152344 273.886719 93.230469 273.585938 93.226562 C 273.113281 93.234375 272.71875 93.0625 272.410156 92.710938 Z M 305.144531 132.066406 C 305.457031 132.417969 305.847656 132.589844 306.320312 132.582031 C 306.621094 132.585938 306.902344 132.507812 307.15625 132.34375 C 307.523438 132.121094 307.746094 131.792969 307.816406 131.367188 C 307.816406 131.367188 307.816406 131.25 307.816406 131.1875 C 307.8125 130.910156 307.71875 130.664062 307.535156 130.453125 L 304.484375 126.789062 C 304.222656 126.519531 303.90625 126.363281 303.535156 126.308594 C 303.164062 126.257812 302.816406 126.324219 302.492188 126.507812 C 302.152344 126.710938 301.933594 127.003906 301.835938 127.386719 L 301.835938 127.585938 C 301.824219 127.875 301.917969 128.125 302.113281 128.339844 Z M 314.074219 142.800781 C 314.390625 143.144531 314.78125 143.3125 315.25 143.296875 C 315.550781 143.308594 315.832031 143.234375 316.089844 143.078125 C 316.460938 142.855469 316.6875 142.53125 316.765625 142.105469 L 316.765625 141.945312 C 316.773438 141.671875 316.6875 141.433594 316.507812 141.226562 L 313.476562 137.5625 C 313.210938 137.304688 312.890625 137.148438 312.523438 137.101562 C 312.152344 137.054688 311.808594 137.121094 311.484375 137.304688 C 311.113281 137.519531 310.886719 137.839844 310.804688 138.257812 C 310.804688 138.257812 310.804688 138.378906 310.804688 138.4375 C 310.808594 138.71875 310.902344 138.964844 311.085938 139.175781 Z M 297.25 122.566406 C 297.5625 122.917969 297.953125 123.089844 298.425781 123.082031 C 298.726562 123.085938 299.007812 123.007812 299.261719 122.84375 C 299.628906 122.625 299.847656 122.308594 299.921875 121.886719 C 299.929688 121.828125 299.929688 121.769531 299.921875 121.707031 C 299.914062 121.429688 299.820312 121.183594 299.640625 120.972656 L 296.609375 117.308594 C 296.34375 117.046875 296.027344 116.894531 295.65625 116.84375 C 295.289062 116.796875 294.941406 116.863281 294.617188 117.046875 C 294.25 117.265625 294.023438 117.585938 293.9375 118.003906 C 293.9375 118.003906 293.9375 118.125 293.9375 118.183594 C 293.941406 118.464844 294.035156 118.707031 294.21875 118.921875 Z M 289.035156 112.707031 C 289.351562 113.050781 289.742188 113.21875 290.210938 113.203125 C 290.507812 113.203125 290.789062 113.128906 291.046875 112.984375 C 291.417969 112.777344 291.644531 112.464844 291.726562 112.046875 C 291.726562 112.046875 291.726562 111.910156 291.726562 111.847656 C 291.722656 111.582031 291.636719 111.34375 291.46875 111.132812 L 288.417969 107.46875 C 288.160156 107.191406 287.84375 107.027344 287.46875 106.972656 C 287.09375 106.921875 286.746094 106.992188 286.421875 107.1875 C 286.042969 107.40625 285.816406 107.734375 285.746094 108.164062 L 285.746094 108.324219 C 285.746094 108.605469 285.839844 108.851562 286.023438 109.0625 Z M 281.0625 103.207031 C 281.375 103.550781 281.769531 103.714844 282.238281 103.703125 C 282.535156 103.703125 282.8125 103.628906 283.074219 103.484375 C 283.4375 103.273438 283.65625 102.960938 283.730469 102.546875 C 283.742188 102.480469 283.742188 102.414062 283.730469 102.347656 C 283.726562 102.070312 283.632812 101.824219 283.453125 101.613281 L 280.421875 97.949219 C 280.160156 97.679688 279.84375 97.523438 279.46875 97.476562 C 279.097656 97.425781 278.75 97.5 278.429688 97.6875 C 278.058594 97.90625 277.832031 98.222656 277.75 98.644531 C 277.75 98.644531 277.75 98.765625 277.75 98.824219 C 277.753906 99.105469 277.847656 99.347656 278.03125 99.5625 Z M 125.417969 215.898438 C 125.152344 215.636719 124.835938 215.484375 124.464844 215.433594 C 124.097656 215.386719 123.75 215.453125 123.425781 215.636719 C 123.054688 215.855469 122.828125 216.171875 122.746094 216.59375 C 122.746094 216.59375 122.746094 216.714844 122.746094 216.773438 C 122.75 217.054688 122.84375 217.300781 123.027344 217.511719 L 126.078125 221.175781 C 126.394531 221.519531 126.785156 221.6875 127.253906 221.671875 C 127.554688 221.683594 127.832031 221.609375 128.089844 221.453125 C 128.457031 221.234375 128.675781 220.917969 128.746094 220.496094 C 128.757812 220.4375 128.757812 220.378906 128.746094 220.320312 C 128.742188 220.039062 128.648438 219.792969 128.46875 219.582031 Z M 84.53125 166.703125 C 84.269531 166.433594 83.953125 166.269531 83.582031 166.21875 C 83.210938 166.167969 82.859375 166.234375 82.535156 166.421875 C 82.15625 166.640625 81.929688 166.96875 81.859375 167.398438 L 81.859375 167.558594 C 81.859375 167.839844 81.953125 168.082031 82.136719 168.292969 L 85.167969 171.960938 C 85.484375 172.304688 85.875 172.472656 86.34375 172.457031 C 86.640625 172.457031 86.921875 172.382812 87.179688 172.238281 C 87.542969 172.023438 87.769531 171.710938 87.859375 171.300781 L 87.859375 171.203125 C 87.867188 170.914062 87.773438 170.660156 87.578125 170.445312 Z M 76.554688 157.261719 C 76.292969 156.996094 75.972656 156.835938 75.601562 156.789062 C 75.230469 156.742188 74.882812 156.8125 74.5625 157 C 74.191406 157.21875 73.964844 157.535156 73.882812 157.957031 C 73.882812 157.957031 73.882812 158.078125 73.882812 158.136719 C 73.886719 158.417969 73.980469 158.664062 74.164062 158.875 L 77.191406 162.5 C 77.503906 162.871094 77.902344 163.046875 78.390625 163.035156 C 78.6875 163.035156 78.964844 162.960938 79.226562 162.816406 C 79.582031 162.609375 79.800781 162.304688 79.882812 161.902344 C 79.953125 161.550781 79.871094 161.238281 79.644531 160.964844 Z M 117.203125 206.039062 C 116.949219 205.761719 116.632812 205.597656 116.257812 205.542969 C 115.882812 205.492188 115.535156 205.5625 115.210938 205.757812 C 114.839844 205.976562 114.613281 206.292969 114.535156 206.714844 L 114.535156 206.875 C 114.523438 207.164062 114.617188 207.417969 114.8125 207.632812 L 117.824219 211.257812 C 118.078125 211.535156 118.390625 211.703125 118.765625 211.761719 C 119.140625 211.816406 119.492188 211.746094 119.816406 211.554688 C 120.1875 211.339844 120.414062 211.019531 120.496094 210.597656 L 120.496094 210.441406 C 120.503906 210.148438 120.410156 209.898438 120.214844 209.683594 Z M 95.734375 180.144531 L 92.703125 176.5625 C 92.433594 176.304688 92.117188 176.152344 91.75 176.105469 C 91.382812 176.054688 91.035156 176.121094 90.710938 176.300781 C 90.339844 176.519531 90.113281 176.839844 90.03125 177.257812 C 90.03125 177.257812 90.03125 177.378906 90.03125 177.4375 C 90.035156 177.71875 90.128906 177.960938 90.3125 178.175781 L 93.359375 181.839844 C 93.671875 182.191406 94.066406 182.363281 94.539062 182.355469 C 94.839844 182.359375 95.121094 182.28125 95.375 182.117188 C 95.738281 181.898438 95.960938 181.582031 96.03125 181.160156 C 96.042969 181.101562 96.042969 181.042969 96.03125 180.980469 C 96.027344 180.703125 95.933594 180.457031 95.753906 180.246094 Z M 109.308594 196.4375 C 109.046875 196.171875 108.730469 196.015625 108.359375 195.964844 C 107.988281 195.917969 107.640625 195.988281 107.316406 196.179688 C 106.945312 196.386719 106.71875 196.699219 106.640625 197.113281 C 106.640625 197.113281 106.640625 197.253906 106.640625 197.3125 C 106.644531 197.59375 106.738281 197.839844 106.917969 198.050781 L 109.949219 201.675781 C 110.203125 201.957031 110.515625 202.125 110.890625 202.179688 C 111.265625 202.234375 111.617188 202.167969 111.941406 201.976562 C 112.296875 201.769531 112.519531 201.460938 112.601562 201.058594 C 112.652344 200.722656 112.574219 200.425781 112.359375 200.164062 Z M 103.628906 189.726562 L 100.597656 186.0625 C 100.335938 185.792969 100.019531 185.636719 99.648438 185.582031 C 99.277344 185.53125 98.929688 185.597656 98.605469 185.78125 C 98.242188 186.003906 98.015625 186.320312 97.925781 186.738281 L 97.925781 186.917969 C 97.925781 187.199219 98.019531 187.445312 98.207031 187.65625 L 101.234375 191.320312 C 101.546875 191.671875 101.941406 191.84375 102.414062 191.835938 C 102.714844 191.839844 102.996094 191.761719 103.25 191.597656 C 103.625 191.375 103.851562 191.050781 103.925781 190.621094 L 103.925781 190.460938 C 103.933594 190.191406 103.847656 189.953125 103.667969 189.746094 Z M 157.457031 158.375 C 157.316406 158.199219 157.152344 158.054688 156.960938 157.9375 C 156.769531 157.824219 156.5625 157.746094 156.339844 157.707031 C 156.121094 157.667969 155.898438 157.671875 155.679688 157.714844 C 155.457031 157.757812 155.253906 157.839844 155.0625 157.957031 L 154.265625 158.4375 C 153.777344 158.664062 153.476562 159.042969 153.371094 159.570312 C 153.351562 159.683594 153.351562 159.796875 153.371094 159.910156 C 153.371094 160.308594 153.503906 160.664062 153.769531 160.964844 L 169.875 180.882812 C 170.234375 181.332031 170.699219 181.558594 171.273438 181.558594 C 171.621094 181.558594 171.945312 181.472656 172.25 181.300781 L 173.027344 180.863281 C 173.554688 180.613281 173.871094 180.199219 173.984375 179.628906 C 174.066406 179.132812 173.949219 178.695312 173.625 178.3125 Z M 225.835938 149.773438 C 225.753906 149.457031 225.589844 149.191406 225.339844 148.976562 C 225.09375 148.761719 224.808594 148.636719 224.480469 148.597656 L 204.347656 146.207031 L 209.210938 130.75 C 209.230469 130.589844 209.230469 130.433594 209.210938 130.273438 C 209.21875 129.742188 209.003906 129.324219 208.574219 129.019531 C 208.292969 128.828125 207.984375 128.730469 207.644531 128.730469 C 207.308594 128.730469 206.996094 128.828125 206.71875 129.019531 L 205.683594 129.597656 C 205.121094 129.902344 204.730469 130.355469 204.503906 130.949219 L 200.160156 145.171875 L 194.179688 137.863281 C 194.035156 137.683594 193.863281 137.53125 193.667969 137.414062 C 193.472656 137.292969 193.261719 137.207031 193.035156 137.160156 C 192.808594 137.113281 192.582031 137.105469 192.355469 137.136719 C 192.128906 137.167969 191.910156 137.238281 191.707031 137.34375 L 191.007812 137.742188 C 190.507812 138.011719 190.195312 138.421875 190.070312 138.976562 C 190.070312 138.976562 190.070312 139.136719 190.070312 139.234375 C 190.082031 139.667969 190.226562 140.046875 190.511719 140.371094 L 206.460938 160.289062 C 206.816406 160.738281 207.28125 160.960938 207.855469 160.964844 C 208.203125 160.964844 208.527344 160.878906 208.832031 160.707031 L 209.609375 160.269531 C 210.097656 159.996094 210.417969 159.59375 210.566406 159.054688 C 210.566406 159.054688 210.566406 158.855469 210.566406 158.773438 C 210.5625 158.367188 210.429688 158.011719 210.167969 157.699219 L 204.1875 150.410156 L 222.089844 152.601562 C 222.742188 152.707031 223.363281 152.601562 223.945312 152.28125 L 225.121094 151.625 C 225.386719 151.488281 225.601562 151.292969 225.761719 151.039062 C 225.921875 150.785156 226.007812 150.507812 226.015625 150.210938 C 226.03125 150.082031 226.03125 149.957031 226.015625 149.832031 Z M 244.019531 112.707031 L 250 109.460938 C 250.496094 109.207031 250.800781 108.808594 250.917969 108.265625 C 250.917969 108.265625 250.917969 108.125 250.917969 108.027344 C 250.910156 107.613281 250.777344 107.25 250.519531 106.929688 L 250.101562 106.433594 C 249.964844 106.257812 249.800781 106.109375 249.609375 105.996094 C 249.417969 105.882812 249.214844 105.804688 248.996094 105.765625 C 248.773438 105.726562 248.554688 105.730469 248.335938 105.773438 C 248.121094 105.816406 247.914062 105.894531 247.726562 106.015625 L 231.617188 115.054688 C 231.136719 115.296875 230.847656 115.683594 230.742188 116.210938 C 230.726562 116.324219 230.726562 116.4375 230.742188 116.550781 C 230.75 116.949219 230.882812 117.300781 231.140625 117.605469 L 231.480469 118.042969 C 231.617188 118.226562 231.78125 118.378906 231.976562 118.5 C 232.171875 118.621094 232.382812 118.703125 232.605469 118.746094 C 232.832031 118.785156 233.054688 118.789062 233.28125 118.746094 C 233.507812 118.703125 233.714844 118.621094 233.910156 118.5 L 240.03125 114.9375 L 254.765625 133.101562 C 255.109375 133.574219 255.574219 133.808594 256.160156 133.796875 C 256.507812 133.796875 256.835938 133.710938 257.136719 133.539062 L 257.816406 133.160156 C 258.339844 132.894531 258.679688 132.472656 258.832031 131.90625 C 258.90625 131.414062 258.785156 130.976562 258.472656 130.589844 Z M 246.410156 137.34375 L 246.011719 136.867188 C 245.875 136.691406 245.714844 136.550781 245.523438 136.4375 C 245.335938 136.324219 245.132812 136.25 244.914062 136.210938 C 244.695312 136.175781 244.480469 136.179688 244.261719 136.222656 C 244.046875 136.265625 243.847656 136.347656 243.660156 136.46875 L 230.859375 143.65625 L 225.378906 136.867188 L 235.964844 130.890625 C 236.449219 130.628906 236.753906 130.230469 236.882812 129.695312 C 236.882812 129.695312 236.882812 129.535156 236.882812 129.4375 C 236.871094 129.03125 236.738281 128.675781 236.484375 128.359375 L 236.066406 127.863281 C 235.929688 127.6875 235.765625 127.542969 235.574219 127.425781 C 235.382812 127.3125 235.179688 127.234375 234.960938 127.195312 C 234.738281 127.160156 234.519531 127.160156 234.300781 127.203125 C 234.085938 127.246094 233.878906 127.328125 233.691406 127.445312 L 222.726562 133.617188 L 217.722656 127.425781 L 230.144531 120.453125 C 230.640625 120.199219 230.945312 119.800781 231.0625 119.257812 C 231.070312 119.164062 231.070312 119.074219 231.0625 118.980469 C 231.054688 118.578125 230.921875 118.226562 230.660156 117.925781 L 230.242188 117.425781 C 230.105469 117.253906 229.945312 117.109375 229.753906 116.996094 C 229.566406 116.882812 229.363281 116.808594 229.148438 116.769531 C 228.929688 116.730469 228.714844 116.730469 228.496094 116.773438 C 228.28125 116.8125 228.078125 116.894531 227.890625 117.007812 L 212.878906 125.453125 C 212.386719 125.699219 212.074219 126.09375 211.941406 126.628906 C 211.941406 126.628906 211.941406 126.808594 211.941406 126.886719 C 211.949219 127.304688 212.085938 127.667969 212.359375 127.984375 L 228.46875 147.898438 C 228.816406 148.363281 229.28125 148.589844 229.863281 148.578125 C 230.210938 148.574219 230.539062 148.488281 230.839844 148.316406 L 245.851562 139.875 C 246.347656 139.621094 246.652344 139.222656 246.769531 138.679688 C 246.851562 138.210938 246.742188 137.792969 246.453125 137.421875 Z M 255.703125 68.070312 C 255.433594 67.8125 255.117188 67.660156 254.746094 67.617188 C 254.375 67.570312 254.03125 67.644531 253.707031 67.832031 C 253.335938 68.054688 253.109375 68.378906 253.03125 68.808594 L 253.03125 68.96875 C 253.027344 69.25 253.121094 69.496094 253.308594 69.703125 L 256.339844 73.371094 C 256.65625 73.714844 257.046875 73.878906 257.515625 73.867188 C 257.816406 73.878906 258.097656 73.804688 258.351562 73.648438 C 258.722656 73.433594 258.949219 73.113281 259.03125 72.691406 C 259.039062 72.652344 259.039062 72.613281 259.03125 72.574219 C 259.027344 72.292969 258.9375 72.046875 258.753906 71.835938 L 255.703125 68.171875 Z M 355.761719 145.75 C 355.402344 150.925781 360.207031 155.707031 366.925781 156.761719 L 370.535156 157.320312 L 149.402344 284.589844 L 148.804688 283.058594 C 146.550781 277.519531 140.46875 273.777344 133.332031 273.539062 C 125.5 273.277344 118.003906 277.519531 114.992188 283.496094 L 113.933594 285.648438 L 13.316406 164.730469 L 16.488281 164.847656 C 24.460938 165.167969 32.058594 160.867188 34.429688 154.550781 C 36.800781 148.238281 33.394531 141.464844 26.136719 138.617188 L 23.664062 137.664062 L 24.582031 137.144531 L 244.238281 10.910156 L 243.738281 13.738281 C 242.582031 20.152344 247.367188 26.207031 254.625 27.539062 C 256.636719 27.890625 258.652344 27.90625 260.671875 27.585938 C 262.691406 27.265625 264.601562 26.625 266.40625 25.667969 C 268.207031 24.78125 269.761719 23.578125 271.066406 22.058594 C 272.371094 20.535156 273.324219 18.816406 273.921875 16.902344 L 274.699219 14.117188 L 275.300781 14.851562 L 375.101562 134.8125 L 371.910156 134.695312 C 369.871094 134.59375 367.875 134.828125 365.921875 135.40625 C 363.964844 135.984375 362.160156 136.867188 360.507812 138.0625 C 359.191406 138.957031 358.121094 140.085938 357.292969 141.441406 C 356.464844 142.800781 355.953125 144.269531 355.761719 145.847656 Z M 352.792969 145.75 C 352.914062 144.777344 353.136719 143.828125 353.460938 142.902344 C 353.789062 141.980469 354.210938 141.101562 354.726562 140.265625 C 355.242188 139.433594 355.839844 138.664062 356.523438 137.960938 C 357.207031 137.253906 357.953125 136.632812 358.773438 136.089844 C 360.304688 134.953125 361.964844 134.046875 363.75 133.371094 C 365.535156 132.695312 367.375 132.273438 369.277344 132.105469 L 275.917969 20.011719 C 275.046875 21.730469 273.929688 23.269531 272.566406 24.632812 C 271.203125 25.996094 269.664062 27.109375 267.941406 27.976562 C 265.804688 29.109375 263.539062 29.867188 261.148438 30.246094 C 258.761719 30.628906 256.371094 30.617188 253.988281 30.207031 C 246.332031 28.773438 240.871094 22.960938 240.691406 16.265625 L 29.765625 137.34375 C 36.84375 141.128906 39.933594 148.417969 37.28125 155.269531 C 34.808594 161.761719 27.492188 166.621094 19.339844 167.339844 L 113.457031 280.527344 C 114.570312 279.011719 115.847656 277.644531 117.285156 276.429688 C 118.726562 275.214844 120.289062 274.1875 121.972656 273.34375 C 123.660156 272.503906 125.417969 271.871094 127.253906 271.449219 C 129.089844 271.027344 130.949219 270.828125 132.835938 270.847656 L 133.59375 270.847656 C 135.339844 270.828125 137.058594 271.03125 138.75 271.460938 C 140.441406 271.886719 142.046875 272.527344 143.574219 273.378906 C 145.097656 274.230469 146.484375 275.265625 147.734375 276.480469 C 148.988281 277.695312 150.0625 279.050781 150.957031 280.546875 L 363.058594 158.636719 C 356.578125 156.484375 352.390625 151.285156 352.792969 145.75 Z M 264.535156 83.230469 C 264.847656 83.582031 265.238281 83.753906 265.710938 83.746094 C 266.011719 83.75 266.292969 83.671875 266.546875 83.507812 C 266.902344 83.300781 267.125 82.996094 267.203125 82.589844 C 267.273438 82.242188 267.191406 81.929688 266.964844 81.65625 L 263.957031 77.992188 C 263.699219 77.714844 263.382812 77.550781 263.007812 77.496094 C 262.632812 77.445312 262.285156 77.515625 261.960938 77.710938 C 261.589844 77.917969 261.363281 78.230469 261.285156 78.648438 C 261.285156 78.648438 261.285156 78.785156 261.285156 78.847656 C 261.289062 79.125 261.382812 79.371094 261.5625 79.582031 Z M 259.707031 38.59375 L 342.203125 137.78125 L 339.015625 137.664062 C 337.394531 137.582031 335.800781 137.769531 334.242188 138.226562 C 332.683594 138.683594 331.246094 139.386719 329.925781 140.332031 C 328.921875 141.003906 328.09375 141.847656 327.4375 142.859375 C 326.785156 143.875 326.355469 144.976562 326.15625 146.167969 C 326.144531 146.214844 326.144531 146.261719 326.15625 146.304688 C 326.144531 146.371094 326.144531 146.4375 326.15625 146.503906 C 326.144531 146.65625 326.144531 146.8125 326.15625 146.964844 C 326.15625 150.945312 329.882812 154.414062 335.046875 155.230469 L 338.636719 155.828125 L 337.421875 156.523438 L 157.515625 259.953125 L 156.878906 258.441406 C 156.320312 257.28125 155.613281 256.21875 154.753906 255.261719 C 153.894531 254.304688 152.914062 253.488281 151.820312 252.8125 C 150.722656 252.136719 149.554688 251.628906 148.3125 251.289062 C 147.070312 250.949219 145.804688 250.789062 144.515625 250.8125 C 143.046875 250.734375 141.589844 250.855469 140.152344 251.179688 C 138.714844 251.507812 137.347656 252.019531 136.054688 252.722656 C 134.757812 253.425781 133.582031 254.292969 132.527344 255.320312 C 131.472656 256.351562 130.578125 257.503906 129.84375 258.777344 L 128.789062 260.929688 L 46.152344 161.621094 L 49.34375 161.742188 C 55.742188 161.980469 61.78125 158.535156 63.714844 153.535156 C 64.125 152.484375 64.332031 151.398438 64.335938 150.269531 C 64.28125 149.210938 64.074219 148.183594 63.710938 147.183594 C 63.34375 146.1875 62.835938 145.269531 62.191406 144.429688 C 61.542969 143.585938 60.785156 142.859375 59.917969 142.25 C 59.050781 141.640625 58.109375 141.171875 57.097656 140.847656 L 54.625 139.894531 L 235.328125 36.023438 L 234.789062 38.894531 C 234.691406 39.386719 234.644531 39.882812 234.648438 40.386719 C 234.679688 40.972656 234.765625 41.550781 234.898438 42.121094 C 235.03125 42.691406 235.210938 43.246094 235.441406 43.785156 C 235.671875 44.324219 235.945312 44.839844 236.265625 45.328125 C 236.582031 45.820312 236.941406 46.28125 237.34375 46.710938 C 237.742188 47.136719 238.175781 47.53125 238.640625 47.882812 C 239.109375 48.238281 239.605469 48.546875 240.125 48.8125 C 240.648438 49.082031 241.1875 49.300781 241.75 49.476562 C 242.308594 49.648438 242.878906 49.773438 243.460938 49.847656 C 245.066406 50.125 246.671875 50.136719 248.28125 49.882812 C 249.890625 49.625 251.414062 49.117188 252.851562 48.351562 C 254.289062 47.652344 255.527344 46.691406 256.566406 45.476562 C 257.605469 44.261719 258.359375 42.890625 258.832031 41.363281 Z M 260.804688 44.410156 C 260.0625 45.738281 259.140625 46.929688 258.039062 47.980469 C 256.9375 49.03125 255.707031 49.898438 254.347656 50.585938 C 252.5625 51.519531 250.675781 52.148438 248.6875 52.464844 C 246.699219 52.78125 244.710938 52.773438 242.722656 52.4375 C 242.023438 52.335938 241.335938 52.179688 240.660156 51.96875 C 239.984375 51.757812 239.332031 51.492188 238.703125 51.171875 C 238.070312 50.851562 237.46875 50.484375 236.898438 50.066406 C 236.328125 49.652344 235.792969 49.191406 235.296875 48.6875 C 234.804688 48.183594 234.351562 47.640625 233.945312 47.0625 C 233.539062 46.484375 233.179688 45.878906 232.871094 45.242188 C 232.5625 44.605469 232.308594 43.949219 232.109375 43.273438 C 231.910156 42.59375 231.765625 41.90625 231.679688 41.203125 L 60.605469 139.535156 C 61.585938 140.042969 62.484375 140.671875 63.296875 141.421875 C 64.113281 142.171875 64.8125 143.015625 65.398438 143.953125 C 65.984375 144.890625 66.441406 145.886719 66.757812 146.945312 C 67.078125 148.003906 67.253906 149.085938 67.285156 150.191406 C 67.304688 151.601562 67.070312 152.96875 66.585938 154.292969 C 64.59375 159.609375 58.832031 163.515625 52.171875 164.25 L 128.371094 255.871094 C 129.292969 254.65625 130.347656 253.570312 131.527344 252.605469 C 132.710938 251.636719 133.988281 250.824219 135.359375 250.15625 C 136.734375 249.492188 138.164062 248.992188 139.65625 248.664062 C 141.144531 248.332031 142.652344 248.179688 144.179688 248.203125 L 144.796875 248.203125 C 146.21875 248.191406 147.617188 248.355469 148.996094 248.703125 C 150.378906 249.046875 151.691406 249.5625 152.9375 250.242188 C 154.183594 250.925781 155.328125 251.753906 156.363281 252.726562 C 157.398438 253.699219 158.292969 254.789062 159.050781 255.992188 L 331.238281 156.980469 C 326.375 155.167969 323.164062 151.246094 323.164062 147.023438 C 323.164062 146.824219 323.164062 146.625 323.164062 146.425781 C 323.378906 144.808594 323.914062 143.304688 324.773438 141.914062 C 325.632812 140.527344 326.738281 139.375 328.089844 138.457031 C 330.546875 136.675781 333.285156 135.613281 336.304688 135.273438 Z M 248.425781 63.867188 C 248.742188 64.214844 249.132812 64.378906 249.601562 64.367188 C 249.902344 64.378906 250.179688 64.304688 250.4375 64.148438 C 250.796875 63.933594 251.019531 63.621094 251.097656 63.210938 C 251.109375 63.160156 251.109375 63.105469 251.097656 63.050781 C 251.089844 62.773438 250.996094 62.527344 250.816406 62.316406 L 247.785156 58.628906 C 247.519531 58.371094 247.203125 58.21875 246.832031 58.167969 C 246.464844 58.121094 246.117188 58.1875 245.792969 58.371094 C 245.421875 58.585938 245.195312 58.90625 245.117188 59.328125 C 245.117188 59.328125 245.117188 59.449219 245.117188 59.507812 C 245.117188 59.789062 245.210938 60.03125 245.394531 60.242188 Z M 133.3125 225.398438 C 133.054688 225.125 132.738281 224.960938 132.367188 224.910156 C 131.992188 224.859375 131.644531 224.925781 131.320312 225.117188 C 130.945312 225.339844 130.71875 225.667969 130.640625 226.09375 L 130.640625 226.253906 C 130.640625 226.535156 130.734375 226.78125 130.921875 226.992188 L 133.953125 230.65625 C 134.265625 231 134.660156 231.167969 135.128906 231.152344 C 135.429688 231.160156 135.707031 231.089844 135.964844 230.933594 C 136.335938 230.71875 136.5625 230.398438 136.644531 229.976562 C 136.652344 229.9375 136.652344 229.898438 136.644531 229.859375 C 136.640625 229.578125 136.546875 229.332031 136.363281 229.121094 Z M 145.433594 168.136719 L 151.414062 164.828125 C 151.910156 164.578125 152.214844 164.179688 152.332031 163.632812 C 152.339844 163.542969 152.339844 163.449219 152.332031 163.355469 C 152.324219 162.949219 152.191406 162.59375 151.933594 162.28125 L 151.515625 161.78125 C 151.378906 161.609375 151.214844 161.464844 151.027344 161.351562 C 150.835938 161.242188 150.632812 161.164062 150.414062 161.128906 C 150.199219 161.09375 149.980469 161.09375 149.765625 161.140625 C 149.550781 161.183594 149.347656 161.265625 149.164062 161.382812 L 133.054688 170.425781 C 132.558594 170.679688 132.253906 171.078125 132.136719 171.621094 C 132.136719 171.621094 132.136719 171.800781 132.136719 171.898438 C 132.148438 172.296875 132.285156 172.648438 132.535156 172.957031 L 132.894531 173.394531 C 133.03125 173.574219 133.195312 173.722656 133.386719 173.84375 C 133.582031 173.964844 133.789062 174.046875 134.011719 174.089844 C 134.230469 174.132812 134.457031 174.136719 134.679688 174.097656 C 134.902344 174.0625 135.113281 173.984375 135.308594 173.871094 L 141.566406 170.367188 L 156.300781 188.550781 C 156.648438 189 157.105469 189.226562 157.675781 189.226562 C 158.035156 189.214844 158.375 189.121094 158.691406 188.949219 L 159.332031 188.570312 C 159.867188 188.3125 160.207031 187.894531 160.347656 187.316406 C 160.433594 186.824219 160.320312 186.386719 160.007812 186 Z M 142.34375 236.132812 C 142.082031 235.867188 141.765625 235.710938 141.390625 235.660156 C 141.019531 235.613281 140.671875 235.683594 140.351562 235.875 C 139.980469 236.089844 139.753906 236.410156 139.671875 236.828125 C 139.671875 236.828125 139.671875 236.949219 139.671875 237.007812 C 139.675781 237.289062 139.769531 237.535156 139.953125 237.746094 L 142.984375 241.371094 C 143.238281 241.652344 143.550781 241.820312 143.925781 241.875 C 144.300781 241.929688 144.652344 241.863281 144.976562 241.667969 C 145.332031 241.464844 145.550781 241.15625 145.632812 240.753906 C 145.699219 240.402344 145.621094 240.09375 145.394531 239.816406 Z M 200.757812 159.671875 C 200.472656 159.277344 200.085938 159.058594 199.601562 159.011719 L 198.585938 158.855469 L 198.164062 158.855469 C 197.785156 158.855469 197.433594 158.964844 197.121094 159.183594 C 196.808594 159.402344 196.585938 159.691406 196.453125 160.050781 C 195.964844 161.382812 195.265625 162.585938 194.34375 163.667969 C 193.425781 164.746094 192.347656 165.632812 191.109375 166.324219 C 189.644531 167.167969 188.078125 167.742188 186.417969 168.050781 C 184.753906 168.355469 183.089844 168.378906 181.417969 168.117188 C 179.867188 167.964844 178.402344 167.527344 177.023438 166.804688 C 175.644531 166.078125 174.449219 165.121094 173.445312 163.933594 C 172.816406 163.207031 172.332031 162.394531 171.988281 161.5 C 171.644531 160.601562 171.464844 159.675781 171.453125 158.714844 C 171.457031 157.980469 171.550781 157.257812 171.730469 156.542969 C 172.125 155.101562 172.800781 153.800781 173.75 152.644531 C 174.703125 151.488281 175.851562 150.578125 177.191406 149.910156 C 178.578125 149.140625 180.042969 148.597656 181.59375 148.277344 C 183.144531 147.960938 184.707031 147.878906 186.285156 148.039062 C 186.5 148.082031 186.71875 148.085938 186.933594 148.046875 C 187.152344 148.003906 187.355469 147.925781 187.539062 147.808594 C 187.726562 147.6875 187.882812 147.539062 188.011719 147.359375 C 188.136719 147.175781 188.226562 146.980469 188.277344 146.765625 L 188.496094 145.886719 C 188.503906 145.769531 188.503906 145.648438 188.496094 145.53125 C 188.5 145.195312 188.40625 144.890625 188.21875 144.613281 C 187.890625 144.171875 187.449219 143.933594 186.902344 143.894531 C 184.828125 143.683594 182.769531 143.792969 180.726562 144.222656 C 178.683594 144.652344 176.753906 145.378906 174.941406 146.40625 C 173.078125 147.351562 171.480469 148.628906 170.148438 150.242188 C 168.816406 151.851562 167.863281 153.660156 167.285156 155.667969 C 166.980469 156.753906 166.824219 157.863281 166.824219 158.992188 C 166.835938 160.382812 167.082031 161.726562 167.570312 163.027344 C 168.058594 164.328125 168.753906 165.507812 169.65625 166.5625 C 171.007812 168.195312 172.621094 169.507812 174.5 170.5 C 176.375 171.488281 178.371094 172.082031 180.480469 172.277344 C 181.441406 172.414062 182.40625 172.480469 183.375 172.476562 C 186.929688 172.46875 190.25 171.585938 193.339844 169.828125 C 195.117188 168.925781 196.648438 167.714844 197.9375 166.195312 C 199.222656 164.675781 200.164062 162.964844 200.757812 161.066406 C 200.902344 160.582031 200.835938 160.132812 200.558594 159.710938 Z M 200.757812 159.671875 " fill-opacity="1" fill-rule="nonzero"/></g><g clip-path="url(#c0c2c126ba)"><path fill="#fd8223" d="M 326.734375 313.230469 L 69.558594 366.171875 L 69.558594 365.117188 C 70.054688 358.960938 66.148438 353.40625 59.589844 350.976562 C 57.757812 350.332031 55.871094 349.933594 53.9375 349.78125 C 52 349.628906 50.074219 349.726562 48.164062 350.078125 C 46.253906 350.425781 44.421875 351.015625 42.664062 351.84375 C 40.90625 352.667969 39.285156 353.707031 37.800781 354.957031 L 36.484375 356.113281 L 0.597656 212.710938 L 2.453125 213.40625 C 3.367188 213.757812 4.300781 214.042969 5.253906 214.265625 C 6.210938 214.484375 7.175781 214.632812 8.152344 214.71875 C 9.128906 214.800781 10.105469 214.8125 11.082031 214.757812 C 12.0625 214.703125 13.03125 214.582031 13.992188 214.386719 C 14.953125 214.195312 15.894531 213.9375 16.816406 213.613281 C 17.742188 213.285156 18.636719 212.898438 19.507812 212.445312 C 20.375 211.996094 21.207031 211.484375 22.003906 210.914062 C 22.800781 210.34375 23.554688 209.722656 24.261719 209.046875 C 24.578125 208.753906 24.878906 208.445312 25.164062 208.125 C 25.449219 207.800781 25.714844 207.464844 25.960938 207.113281 C 26.210938 206.761719 26.441406 206.398438 26.652344 206.023438 C 26.863281 205.648438 27.050781 205.265625 27.222656 204.867188 C 27.394531 204.472656 27.542969 204.070312 27.667969 203.660156 C 27.796875 203.25 27.902344 202.835938 27.988281 202.414062 C 28.070312 201.992188 28.132812 201.566406 28.171875 201.136719 C 28.210938 200.710938 28.230469 200.28125 28.222656 199.851562 C 28.21875 199.421875 28.191406 198.992188 28.140625 198.566406 C 28.089844 198.136719 28.015625 197.714844 27.921875 197.296875 C 27.824219 196.875 27.707031 196.460938 27.570312 196.054688 C 27.433594 195.648438 27.273438 195.25 27.09375 194.859375 C 26.910156 194.46875 26.710938 194.089844 26.492188 193.71875 C 26.269531 193.351562 26.03125 192.992188 25.773438 192.648438 C 25.515625 192.304688 25.242188 191.976562 24.949219 191.660156 C 24.65625 191.34375 24.347656 191.042969 24.023438 190.761719 L 22.925781 189.765625 L 279.167969 136.964844 L 278.050781 138.578125 C 277.804688 138.910156 277.574219 139.25 277.367188 139.605469 C 277.15625 139.960938 276.964844 140.324219 276.792969 140.699219 C 276.625 141.074219 276.472656 141.457031 276.34375 141.847656 C 276.214844 142.238281 276.105469 142.636719 276.015625 143.039062 C 275.929688 143.441406 275.863281 143.847656 275.820312 144.257812 C 275.773438 144.667969 275.753906 145.078125 275.753906 145.488281 C 275.753906 145.902344 275.773438 146.3125 275.816406 146.722656 C 275.863281 147.132812 275.925781 147.539062 276.015625 147.941406 C 276.101562 148.34375 276.210938 148.742188 276.339844 149.132812 C 276.46875 149.523438 276.617188 149.90625 276.789062 150.28125 C 276.960938 150.65625 277.148438 151.019531 277.359375 151.375 C 277.570312 151.730469 277.796875 152.074219 278.042969 152.402344 C 278.289062 152.734375 278.550781 153.050781 278.832031 153.351562 C 279.113281 153.65625 279.40625 153.941406 279.71875 154.214844 C 280.027344 154.484375 280.351562 154.738281 280.691406 154.972656 C 281.027344 155.210938 281.378906 155.429688 281.738281 155.628906 C 283.566406 156.609375 285.507812 157.257812 287.5625 157.574219 C 289.613281 157.886719 291.660156 157.851562 293.699219 157.460938 C 295.878906 157.132812 297.933594 156.4375 299.863281 155.375 C 301.796875 154.3125 303.480469 152.949219 304.925781 151.285156 L 306.238281 149.671875 L 341.964844 292.597656 L 340.132812 291.902344 C 338.167969 291.164062 336.132812 290.769531 334.035156 290.722656 C 331.9375 290.675781 329.886719 290.972656 327.890625 291.621094 C 326.175781 292.105469 324.605469 292.875 323.179688 293.941406 C 321.753906 295.007812 320.566406 296.292969 319.617188 297.796875 C 316.785156 302.875 319.039062 309.089844 324.878906 312.277344 Z M 326.734375 313.230469 " fill-opacity="1" fill-rule="nonzero"/></g><path fill="#ffd432" d="M 280.859375 170.285156 L 279.625 171.421875 C 277.1875 173.582031 274.355469 174.910156 271.132812 175.40625 C 269.351562 175.734375 267.570312 175.761719 265.78125 175.484375 C 263.992188 175.207031 262.300781 174.644531 260.707031 173.792969 C 260.15625 173.488281 259.644531 173.140625 259.164062 172.738281 C 258.683594 172.335938 258.246094 171.894531 257.851562 171.410156 C 257.457031 170.925781 257.113281 170.40625 256.816406 169.855469 C 256.523438 169.304688 256.285156 168.730469 256.101562 168.132812 C 255.914062 167.535156 255.789062 166.925781 255.722656 166.304688 C 255.65625 165.683594 255.648438 165.0625 255.703125 164.441406 C 255.753906 163.816406 255.867188 163.203125 256.039062 162.605469 C 256.210938 162.003906 256.4375 161.421875 256.71875 160.867188 L 257.617188 159.035156 L 51.753906 201.476562 L 52.871094 202.773438 C 53.320312 203.269531 53.714844 203.804688 54.058594 204.378906 C 54.402344 204.953125 54.6875 205.558594 54.910156 206.1875 C 55.136719 206.820312 55.296875 207.464844 55.390625 208.128906 C 55.488281 208.789062 55.519531 209.457031 55.488281 210.125 C 55.453125 210.792969 55.351562 211.453125 55.1875 212.101562 C 55.023438 212.75 54.800781 213.375 54.511719 213.980469 C 54.222656 214.585938 53.878906 215.15625 53.480469 215.695312 C 53.078125 216.230469 52.628906 216.722656 52.132812 217.171875 C 51.019531 218.238281 49.785156 219.144531 48.4375 219.894531 C 47.089844 220.644531 45.671875 221.214844 44.175781 221.601562 C 42.683594 221.988281 41.164062 222.179688 39.621094 222.179688 C 38.078125 222.179688 36.5625 221.984375 35.066406 221.59375 L 33.433594 221.15625 L 62.0625 335.640625 L 63.257812 334.78125 C 64.519531 333.894531 65.871094 333.164062 67.308594 332.59375 C 68.746094 332.027344 70.226562 331.632812 71.757812 331.417969 C 73.289062 331.199219 74.824219 331.167969 76.363281 331.3125 C 77.902344 331.460938 79.402344 331.789062 80.859375 332.292969 C 81.449219 332.472656 82.023438 332.691406 82.578125 332.960938 C 83.132812 333.226562 83.667969 333.53125 84.175781 333.882812 C 84.683594 334.230469 85.160156 334.613281 85.609375 335.035156 C 86.054688 335.460938 86.46875 335.914062 86.847656 336.398438 C 87.226562 336.886719 87.5625 337.398438 87.863281 337.933594 C 88.164062 338.472656 88.417969 339.03125 88.628906 339.609375 C 88.84375 340.1875 89.011719 340.777344 89.132812 341.378906 C 89.253906 341.984375 89.328125 342.59375 89.355469 343.207031 L 89.355469 344.484375 L 296.132812 301.898438 L 294.359375 300.566406 C 293.914062 300.273438 293.496094 299.945312 293.113281 299.578125 C 292.730469 299.207031 292.382812 298.808594 292.070312 298.375 C 291.761719 297.945312 291.492188 297.488281 291.265625 297.007812 C 291.039062 296.527344 290.859375 296.027344 290.722656 295.511719 C 290.589844 295 290.503906 294.476562 290.464844 293.945312 C 290.429688 293.414062 290.441406 292.886719 290.5 292.355469 C 290.558594 291.828125 290.667969 291.308594 290.824219 290.800781 C 290.980469 290.292969 291.179688 289.804688 291.425781 289.332031 C 292.246094 288.011719 293.28125 286.886719 294.527344 285.953125 C 295.773438 285.023438 297.144531 284.347656 298.644531 283.933594 C 301.625 282.976562 304.636719 282.871094 307.675781 283.617188 L 309.289062 284.035156 Z M 65.371094 247.644531 C 65.371094 247.644531 65.351562 247.746094 65.371094 247.644531 Z M 69.359375 263.359375 Z M 68.28125 259.058594 C 68.28125 259.058594 68.203125 259.15625 68.222656 259.058594 Z M 75.359375 287.320312 Z M 81.121094 310.402344 L 80.34375 307.335938 Z M 84.371094 323.429688 Z M 83.292969 319.128906 C 83.292969 319.128906 83.214844 319.226562 83.234375 319.128906 Z M 221.273438 233.324219 L 221.273438 232.628906 C 221.273438 232.628906 221.273438 232.628906 221.511719 232.628906 L 240.269531 228.941406 C 240.609375 228.941406 240.628906 228.941406 240.667969 229.121094 L 240.808594 229.679688 C 240.832031 229.726562 240.832031 229.773438 240.808594 229.820312 C 240.808594 229.820312 240.808594 229.917969 240.53125 229.957031 L 231.917969 231.652344 L 237.28125 254.695312 C 237.28125 254.695312 237.101562 254.835938 236.902344 254.875 L 235.964844 255.054688 C 235.964844 255.054688 235.785156 255.054688 235.746094 254.875 L 230.34375 231.96875 L 221.769531 233.644531 C 221.292969 233.601562 221.253906 233.484375 221.210938 233.324219 Z M 217.285156 234.398438 L 201.078125 237.585938 L 203.449219 247.785156 L 217.523438 245.015625 C 217.863281 245.015625 217.882812 245.015625 217.902344 245.175781 L 218.042969 245.933594 C 217.96875 245.996094 217.882812 246.035156 217.78125 246.050781 L 203.6875 248.878906 L 206.261719 259.773438 L 222.46875 256.585938 C 222.808594 256.585938 222.828125 256.585938 222.847656 256.765625 L 222.988281 257.304688 C 222.988281 257.304688 222.988281 257.425781 222.988281 257.445312 C 222.988281 257.445312 222.988281 257.445312 222.746094 257.445312 L 205.304688 260.890625 L 205.082031 260.890625 C 205.082031 260.890625 204.902344 260.890625 204.863281 260.710938 L 199.28125 236.808594 C 199.28125 236.808594 199.28125 236.710938 199.5625 236.671875 L 217.046875 233.226562 L 217.203125 233.226562 C 217.339844 233.210938 217.410156 233.269531 217.425781 233.402344 L 217.5625 234.160156 C 217.5 234.277344 217.40625 234.355469 217.285156 234.398438 Z M 198.703125 262.105469 C 198.703125 262.105469 198.703125 262.105469 198.445312 262.222656 L 197.070312 262.503906 C 196.753906 262.554688 196.457031 262.511719 196.171875 262.363281 L 178.03125 253.359375 L 180.859375 265.589844 C 180.859375 265.589844 180.859375 265.589844 180.503906 265.75 L 179.484375 265.949219 C 179.484375 265.949219 179.304688 265.949219 179.265625 265.769531 L 173.703125 242.109375 L 172.726562 242.328125 L 173.703125 241.910156 C 173.800781 241.816406 173.910156 241.765625 174.042969 241.75 L 174.820312 241.589844 C 175.160156 241.589844 175.257812 241.589844 175.300781 241.808594 L 177.992188 253.160156 L 190.46875 238.742188 C 190.667969 238.554688 190.898438 238.433594 191.167969 238.382812 L 192.425781 238.144531 C 192.582031 238.144531 192.605469 238.144531 192.582031 238.265625 L 179.84375 252.863281 Z M 166.269531 247.207031 C 166.269531 247.207031 166.109375 247.40625 165.769531 247.207031 C 164.203125 246.511719 162.570312 246.078125 160.867188 245.894531 C 159.167969 245.714844 157.476562 245.800781 155.800781 246.152344 C 154.015625 246.433594 152.34375 247.027344 150.78125 247.933594 C 149.222656 248.839844 147.878906 250 146.75 251.410156 C 146.230469 252.007812 145.789062 252.65625 145.421875 253.359375 C 145.058594 254.0625 144.78125 254.800781 144.59375 255.566406 C 144.402344 256.335938 144.308594 257.117188 144.304688 257.910156 C 144.304688 258.703125 144.394531 259.484375 144.578125 260.253906 C 144.769531 261.039062 145.050781 261.792969 145.414062 262.515625 C 145.78125 263.238281 146.222656 263.914062 146.738281 264.535156 C 147.257812 265.15625 147.839844 265.714844 148.484375 266.207031 C 149.128906 266.695312 149.820312 267.109375 150.558594 267.441406 C 152.191406 268.273438 153.917969 268.804688 155.734375 269.042969 C 157.550781 269.277344 159.351562 269.203125 161.144531 268.816406 C 162.800781 268.476562 164.363281 267.890625 165.835938 267.066406 C 167.308594 266.242188 168.625 265.210938 169.777344 263.976562 C 169.878906 263.847656 170.011719 263.789062 170.175781 263.796875 L 171.191406 264.335938 C 171.191406 264.335938 171.191406 264.335938 171.191406 264.476562 C 169.945312 265.925781 168.488281 267.117188 166.820312 268.050781 C 165.148438 268.984375 163.371094 269.605469 161.484375 269.914062 C 159.480469 270.34375 157.460938 270.4375 155.425781 270.183594 C 153.394531 269.929688 151.457031 269.347656 149.621094 268.4375 C 148.800781 268.070312 148.035156 267.617188 147.320312 267.074219 C 146.609375 266.53125 145.964844 265.914062 145.390625 265.222656 C 144.820312 264.53125 144.332031 263.785156 143.933594 262.984375 C 143.535156 262.179688 143.230469 261.34375 143.023438 260.472656 C 142.828125 259.632812 142.734375 258.785156 142.742188 257.925781 C 142.746094 257.066406 142.855469 256.21875 143.0625 255.382812 C 143.269531 254.550781 143.574219 253.75 143.972656 252.988281 C 144.367188 252.226562 144.847656 251.519531 145.414062 250.871094 C 146.703125 249.328125 148.222656 248.050781 149.964844 247.046875 C 151.710938 246.042969 153.578125 245.375 155.5625 245.035156 C 156.878906 244.78125 158.207031 244.65625 159.550781 244.65625 C 162.089844 244.640625 164.515625 245.160156 166.824219 246.210938 C 166.945312 246.210938 167.003906 246.210938 166.964844 246.449219 Z M 138.179688 274.035156 C 138.085938 274.117188 137.980469 274.167969 137.859375 274.195312 L 136.800781 274.375 C 136.800781 274.375 136.601562 274.375 136.582031 274.214844 L 131.019531 250.3125 C 131.019531 250.3125 131.160156 250.3125 131.261719 250.3125 L 132.195312 250.113281 L 132.375 250.113281 C 132.511719 250.101562 132.582031 250.160156 132.59375 250.292969 Z M 125.65625 252.125 C 125.679688 252.171875 125.679688 252.21875 125.65625 252.265625 C 125.582031 252.324219 125.496094 252.367188 125.398438 252.386719 L 116.785156 254.078125 L 122.148438 277.101562 C 122.148438 277.222656 121.890625 277.261719 121.75 277.28125 L 120.8125 277.460938 C 120.8125 277.460938 120.632812 277.460938 120.59375 277.28125 L 115.210938 254.378906 L 106.640625 256.070312 C 106.359375 256.070312 106.28125 256.070312 106.238281 255.832031 L 106.238281 255.132812 C 106.238281 255.132812 106.378906 255.132812 106.480469 255.132812 L 125.238281 251.449219 C 125.558594 251.449219 125.597656 251.449219 125.617188 251.609375 Z M 281.777344 269.054688 Z M 271.929688 230.15625 C 271.929688 230.15625 271.929688 230.257812 271.929688 230.15625 Z M 275.917969 245.871094 Z M 263.039062 194.367188 C 263.039062 194.367188 263.058594 194.464844 263.078125 194.367188 Z M 263.039062 194.367188 " fill-opacity="1" fill-rule="nonzero"/><g clip-path="url(#30356ac5f5)"><path fill="#1b1817" d="M 81.4375 311.859375 C 81.3125 311.875 81.1875 311.875 81.0625 311.859375 C 80.742188 311.875 80.449219 311.789062 80.1875 311.609375 C 79.925781 311.429688 79.742188 311.1875 79.644531 310.882812 L 78.546875 306.519531 C 78.539062 306.433594 78.539062 306.347656 78.546875 306.261719 C 78.566406 305.933594 78.6875 305.644531 78.90625 305.398438 C 79.125 305.152344 79.398438 305.003906 79.726562 304.945312 C 80.136719 304.847656 80.53125 304.902344 80.902344 305.105469 C 81.203125 305.285156 81.402344 305.546875 81.5 305.882812 L 82.59375 310.265625 C 82.613281 310.363281 82.613281 310.464844 82.59375 310.5625 C 82.574219 310.886719 82.453125 311.167969 82.238281 311.410156 C 82.023438 311.648438 81.757812 311.800781 81.4375 311.859375 Z M 85.765625 323.152344 L 84.667969 318.769531 C 84.613281 318.59375 84.523438 318.433594 84.40625 318.289062 C 84.285156 318.148438 84.144531 318.03125 83.980469 317.941406 C 83.820312 317.855469 83.644531 317.796875 83.460938 317.777344 C 83.277344 317.753906 83.09375 317.765625 82.914062 317.8125 C 82.476562 317.914062 82.136719 318.152344 81.898438 318.53125 C 81.792969 318.714844 81.742188 318.914062 81.738281 319.128906 C 81.71875 319.222656 81.71875 319.3125 81.738281 319.40625 L 82.835938 323.789062 C 82.921875 324.136719 83.121094 324.394531 83.433594 324.566406 C 83.671875 324.707031 83.929688 324.78125 84.210938 324.785156 L 84.570312 324.785156 C 85.011719 324.703125 85.355469 324.476562 85.605469 324.105469 C 85.710938 323.914062 85.761719 323.707031 85.765625 323.488281 C 85.785156 323.398438 85.785156 323.304688 85.765625 323.210938 Z M 172.667969 263.996094 C 172.539062 263.515625 172.246094 263.179688 171.789062 262.980469 L 170.875 262.503906 L 170.753906 262.503906 C 170.398438 262.386719 170.039062 262.375 169.675781 262.472656 C 169.3125 262.570312 169.007812 262.761719 168.761719 263.042969 C 167.707031 264.164062 166.507812 265.097656 165.164062 265.851562 C 163.820312 266.601562 162.394531 267.132812 160.886719 267.441406 C 159.265625 267.800781 157.632812 267.878906 155.984375 267.667969 C 154.339844 267.460938 152.773438 266.980469 151.296875 266.226562 C 150.003906 265.636719 148.902344 264.792969 147.992188 263.703125 C 147.082031 262.609375 146.457031 261.371094 146.113281 259.992188 C 145.96875 259.335938 145.898438 258.671875 145.894531 258.003906 C 145.914062 256.976562 146.105469 255.980469 146.464844 255.019531 C 146.828125 254.0625 147.34375 253.1875 148.007812 252.40625 C 149.023438 251.140625 150.238281 250.105469 151.644531 249.292969 C 153.050781 248.484375 154.554688 247.953125 156.160156 247.703125 C 157.683594 247.382812 159.21875 247.300781 160.769531 247.460938 C 162.320312 247.617188 163.804688 248.011719 165.230469 248.640625 C 165.417969 248.753906 165.617188 248.832031 165.832031 248.871094 C 166.046875 248.910156 166.261719 248.90625 166.476562 248.863281 C 166.691406 248.824219 166.890625 248.742188 167.074219 248.625 C 167.257812 248.507812 167.414062 248.359375 167.542969 248.183594 L 168.121094 247.425781 C 168.34375 247.132812 168.457031 246.800781 168.460938 246.429688 C 168.46875 246.304688 168.46875 246.179688 168.460938 246.050781 C 168.304688 245.523438 167.972656 245.152344 167.464844 244.9375 C 165.5625 244.085938 163.578125 243.554688 161.507812 243.332031 C 159.433594 243.109375 157.382812 243.214844 155.34375 243.640625 C 153.195312 244.007812 151.171875 244.730469 149.28125 245.8125 C 147.386719 246.894531 145.742188 248.269531 144.339844 249.933594 C 143.363281 251.066406 142.609375 252.332031 142.078125 253.726562 C 141.546875 255.125 141.269531 256.566406 141.246094 258.0625 C 141.246094 259.03125 141.359375 259.988281 141.585938 260.929688 C 141.824219 261.902344 142.164062 262.832031 142.613281 263.722656 C 143.0625 264.617188 143.609375 265.445312 144.246094 266.214844 C 144.886719 266.984375 145.605469 267.667969 146.402344 268.273438 C 147.195312 268.878906 148.050781 269.382812 148.964844 269.792969 C 151.660156 271.148438 154.519531 271.8125 157.535156 271.785156 C 158.972656 271.785156 160.394531 271.640625 161.800781 271.347656 C 163.863281 271.007812 165.800781 270.328125 167.617188 269.300781 C 169.433594 268.273438 171.019531 266.960938 172.367188 265.371094 C 172.753906 264.960938 172.878906 264.484375 172.746094 263.9375 Z M 79.585938 299.730469 C 79.6875 299.550781 79.742188 299.355469 79.746094 299.152344 C 79.757812 299.058594 79.757812 298.964844 79.746094 298.871094 L 78.546875 294.492188 C 78.472656 294.144531 78.277344 293.886719 77.96875 293.714844 C 77.59375 293.507812 77.195312 293.453125 76.773438 293.554688 C 76.449219 293.609375 76.175781 293.761719 75.957031 294.003906 C 75.734375 294.25 75.617188 294.539062 75.597656 294.867188 C 75.589844 294.953125 75.589844 295.042969 75.597656 295.128906 L 76.695312 299.507812 C 76.792969 299.816406 76.972656 300.058594 77.234375 300.246094 C 77.496094 300.429688 77.789062 300.515625 78.109375 300.503906 C 78.234375 300.523438 78.363281 300.523438 78.488281 300.503906 C 78.976562 300.417969 79.339844 300.15625 79.585938 299.730469 Z M 127.113281 251.925781 L 126.972656 251.351562 C 126.925781 251.121094 126.835938 250.90625 126.703125 250.714844 C 126.566406 250.519531 126.398438 250.363281 126.199219 250.238281 C 126 250.113281 125.785156 250.035156 125.550781 250 C 125.320312 249.964844 125.089844 249.976562 124.859375 250.035156 L 106.082031 253.71875 C 105.558594 253.796875 105.15625 254.058594 104.863281 254.496094 C 104.695312 254.765625 104.609375 255.054688 104.605469 255.371094 C 104.585938 255.519531 104.585938 255.664062 104.605469 255.8125 L 104.726562 256.328125 C 104.773438 256.5625 104.863281 256.777344 105 256.976562 C 105.132812 257.171875 105.300781 257.335938 105.5 257.464844 C 105.703125 257.59375 105.921875 257.679688 106.15625 257.722656 C 106.390625 257.761719 106.625 257.757812 106.859375 257.703125 L 114.015625 256.269531 L 119.078125 277.78125 C 119.164062 278.171875 119.363281 278.496094 119.679688 278.746094 C 119.992188 278.996094 120.351562 279.117188 120.753906 279.113281 L 121.210938 279.113281 L 121.96875 278.953125 C 122.546875 278.882812 123.007812 278.609375 123.34375 278.136719 C 123.511719 277.871094 123.601562 277.578125 123.605469 277.261719 C 123.621094 277.121094 123.621094 276.984375 123.605469 276.84375 L 118.582031 255.453125 L 125.71875 254.039062 C 126.230469 253.949219 126.636719 253.691406 126.933594 253.261719 C 127.09375 253.003906 127.171875 252.726562 127.171875 252.425781 C 127.183594 252.292969 127.183594 252.160156 127.171875 252.027344 Z M 139.632812 273.65625 L 134.050781 249.933594 C 134.003906 249.703125 133.910156 249.492188 133.773438 249.300781 C 133.636719 249.109375 133.464844 248.953125 133.261719 248.832031 C 133.0625 248.710938 132.84375 248.636719 132.609375 248.605469 C 132.375 248.578125 132.144531 248.59375 131.917969 248.660156 L 130.960938 248.839844 C 130.441406 248.917969 130.035156 249.175781 129.746094 249.617188 C 129.574219 249.882812 129.488281 250.175781 129.484375 250.492188 C 129.46875 250.640625 129.46875 250.785156 129.484375 250.929688 L 135.066406 274.632812 C 135.105469 274.824219 135.171875 275.007812 135.273438 275.175781 C 135.375 275.34375 135.503906 275.488281 135.65625 275.613281 C 135.808594 275.734375 135.980469 275.828125 136.167969 275.886719 C 136.355469 275.949219 136.546875 275.976562 136.742188 275.96875 L 137.179688 275.96875 L 138.117188 275.769531 C 138.640625 275.675781 139.058594 275.417969 139.375 274.992188 C 139.539062 274.730469 139.621094 274.445312 139.613281 274.136719 C 139.632812 274.003906 139.632812 273.871094 139.613281 273.738281 Z M 73.945312 275.988281 C 73.953125 275.902344 73.953125 275.816406 73.945312 275.726562 L 72.847656 271.347656 C 72.753906 271.007812 72.554688 270.746094 72.25 270.570312 C 72.066406 270.46875 71.871094 270.40625 71.664062 270.378906 C 71.457031 270.351562 71.25 270.363281 71.046875 270.414062 C 70.84375 270.464844 70.65625 270.546875 70.488281 270.667969 C 70.316406 270.789062 70.171875 270.933594 70.054688 271.109375 C 69.953125 271.292969 69.898438 271.492188 69.894531 271.703125 C 69.875 271.796875 69.875 271.890625 69.894531 271.984375 L 70.992188 276.367188 C 71.085938 276.675781 71.261719 276.921875 71.527344 277.109375 C 71.792969 277.296875 72.085938 277.378906 72.410156 277.363281 C 72.527344 277.382812 72.648438 277.382812 72.765625 277.363281 C 73.121094 277.296875 73.40625 277.125 73.632812 276.84375 C 73.855469 276.566406 73.960938 276.246094 73.945312 275.886719 Z M 64.992188 240.136719 C 65 240.050781 65 239.964844 64.992188 239.878906 L 63.894531 235.496094 C 63.804688 235.152344 63.605469 234.894531 63.296875 234.71875 C 62.925781 234.511719 62.535156 234.460938 62.121094 234.558594 C 61.796875 234.613281 61.523438 234.765625 61.304688 235.011719 C 61.082031 235.257812 60.964844 235.542969 60.945312 235.875 C 60.933594 235.960938 60.933594 236.046875 60.945312 236.132812 L 62.042969 240.515625 C 62.140625 240.820312 62.320312 241.066406 62.582031 241.25 C 62.84375 241.433594 63.136719 241.519531 63.457031 241.511719 C 63.582031 241.527344 63.710938 241.527344 63.835938 241.511719 C 64.171875 241.445312 64.449219 241.277344 64.667969 241.011719 C 64.886719 240.746094 64.992188 240.441406 64.992188 240.097656 Z M 62.140625 228.742188 C 62.148438 228.65625 62.148438 228.570312 62.140625 228.484375 L 61.042969 224.101562 C 60.988281 223.925781 60.898438 223.761719 60.777344 223.617188 C 60.65625 223.472656 60.515625 223.355469 60.351562 223.269531 C 60.183594 223.179688 60.007812 223.125 59.820312 223.101562 C 59.636719 223.082031 59.453125 223.097656 59.269531 223.148438 C 58.941406 223.207031 58.667969 223.359375 58.449219 223.609375 C 58.230469 223.859375 58.113281 224.148438 58.09375 224.480469 C 58.085938 224.566406 58.085938 224.652344 58.09375 224.742188 L 59.191406 229.121094 C 59.289062 229.460938 59.488281 229.71875 59.789062 229.898438 C 60.035156 230.039062 60.300781 230.109375 60.585938 230.117188 C 60.710938 230.140625 60.839844 230.140625 60.964844 230.117188 C 61.308594 230.058594 61.589844 229.894531 61.816406 229.628906 C 62.039062 229.359375 62.144531 229.050781 62.140625 228.703125 Z M 199.28125 260.832031 L 182.21875 252.464844 L 193.679688 239.300781 C 193.933594 239 194.066406 238.65625 194.078125 238.265625 C 194.074219 237.957031 193.992188 237.671875 193.839844 237.40625 C 193.644531 237.125 193.386719 236.921875 193.066406 236.800781 C 192.746094 236.675781 192.417969 236.652344 192.085938 236.730469 L 190.847656 236.96875 C 190.253906 237.085938 189.75 237.367188 189.335938 237.804688 L 178.726562 250.035156 L 176.734375 241.53125 C 176.683594 241.289062 176.585938 241.066406 176.441406 240.867188 C 176.300781 240.667969 176.121094 240.503906 175.910156 240.375 C 175.699219 240.25 175.46875 240.171875 175.222656 240.140625 C 174.980469 240.109375 174.738281 240.125 174.5 240.195312 L 173.722656 240.355469 C 173.175781 240.429688 172.742188 240.695312 172.429688 241.152344 C 172.257812 241.433594 172.171875 241.738281 172.167969 242.066406 C 172.152344 242.214844 172.152344 242.359375 172.167969 242.507812 L 177.730469 266.167969 C 177.8125 266.5625 178.011719 266.886719 178.328125 267.136719 C 178.644531 267.390625 179.003906 267.511719 179.40625 267.503906 L 179.863281 267.503906 L 180.703125 267.34375 C 181.273438 267.277344 181.71875 267.003906 182.039062 266.527344 C 182.210938 266.261719 182.296875 265.96875 182.296875 265.648438 C 182.316406 265.511719 182.316406 265.371094 182.296875 265.230469 L 180.222656 256.167969 L 195.535156 263.777344 C 196.117188 264.054688 196.730469 264.140625 197.367188 264.035156 L 198.742188 263.757812 C 199.097656 263.722656 199.410156 263.585938 199.675781 263.34375 C 199.9375 263.105469 200.105469 262.8125 200.179688 262.464844 C 200.199219 262.34375 200.199219 262.222656 200.179688 262.105469 C 200.164062 261.824219 200.074219 261.570312 199.914062 261.339844 C 199.75 261.109375 199.542969 260.941406 199.28125 260.832031 Z M 67.703125 252.683594 C 67.820312 252.496094 67.882812 252.289062 67.882812 252.066406 C 67.890625 251.96875 67.890625 251.867188 67.882812 251.769531 L 66.785156 247.386719 C 66.726562 247.214844 66.636719 247.058594 66.519531 246.917969 C 66.402344 246.78125 66.261719 246.667969 66.101562 246.578125 C 65.941406 246.492188 65.769531 246.4375 65.589844 246.417969 C 65.40625 246.394531 65.230469 246.40625 65.050781 246.449219 C 64.613281 246.527344 64.273438 246.753906 64.035156 247.128906 C 63.917969 247.316406 63.855469 247.523438 63.855469 247.746094 C 63.835938 247.835938 63.835938 247.929688 63.855469 248.023438 L 64.953125 252.425781 C 65.050781 252.726562 65.226562 252.964844 65.488281 253.144531 C 65.746094 253.328125 66.03125 253.414062 66.347656 253.402344 C 66.460938 253.421875 66.574219 253.421875 66.6875 253.402344 C 67.183594 253.3125 67.542969 253.039062 67.761719 252.585938 Z M 76.734375 287.398438 C 76.742188 287.3125 76.742188 287.226562 76.734375 287.140625 L 75.636719 282.757812 C 75.582031 282.582031 75.492188 282.417969 75.371094 282.273438 C 75.25 282.128906 75.109375 282.011719 74.941406 281.925781 C 74.777344 281.835938 74.601562 281.78125 74.414062 281.757812 C 74.230469 281.738281 74.042969 281.753906 73.863281 281.804688 C 73.417969 281.902344 73.078125 282.148438 72.847656 282.539062 C 72.742188 282.71875 72.691406 282.910156 72.6875 283.117188 C 72.679688 283.210938 72.679688 283.304688 72.6875 283.394531 L 73.785156 287.777344 C 73.878906 288.117188 74.078125 288.378906 74.382812 288.554688 C 74.628906 288.699219 74.894531 288.773438 75.179688 288.773438 C 75.304688 288.792969 75.433594 288.792969 75.558594 288.773438 C 75.734375 288.75 75.902344 288.699219 76.058594 288.613281 C 76.214844 288.527344 76.351562 288.414062 76.464844 288.277344 C 76.582031 288.144531 76.664062 287.988281 76.722656 287.820312 C 76.78125 287.652344 76.804688 287.476562 76.792969 287.300781 Z M 70.574219 263.957031 C 70.675781 263.769531 70.730469 263.570312 70.734375 263.359375 C 70.753906 263.265625 70.753906 263.171875 70.734375 263.082031 L 69.636719 258.699219 C 69.578125 258.523438 69.492188 258.363281 69.371094 258.21875 C 69.253906 258.078125 69.113281 257.960938 68.949219 257.871094 C 68.785156 257.785156 68.613281 257.726562 68.429688 257.707031 C 68.246094 257.683594 68.0625 257.695312 67.882812 257.742188 C 67.445312 257.84375 67.105469 258.082031 66.867188 258.460938 C 66.761719 258.644531 66.710938 258.84375 66.707031 259.058594 C 66.6875 259.152344 66.6875 259.242188 66.707031 259.335938 L 67.78125 263.738281 C 67.882812 264.03125 68.058594 264.269531 68.3125 264.449219 C 68.566406 264.628906 68.847656 264.71875 69.160156 264.714844 C 69.292969 264.734375 69.425781 264.734375 69.558594 264.714844 C 70.003906 264.605469 70.339844 264.351562 70.574219 263.957031 Z M 283.214844 269.097656 C 283.222656 269.007812 283.222656 268.921875 283.214844 268.835938 L 282.117188 264.457031 C 282.050781 264.285156 281.957031 264.132812 281.835938 264 C 281.714844 263.863281 281.574219 263.753906 281.410156 263.671875 C 281.25 263.589844 281.078125 263.539062 280.898438 263.519531 C 280.71875 263.5 280.539062 263.511719 280.363281 263.558594 C 280.015625 263.660156 279.722656 263.84375 279.484375 264.117188 C 279.3125 264.332031 279.222656 264.578125 279.226562 264.851562 C 279.207031 264.945312 279.207031 265.039062 279.226562 265.132812 L 280.324219 269.515625 C 280.421875 269.851562 280.621094 270.109375 280.921875 270.289062 C 281.167969 270.433594 281.433594 270.507812 281.71875 270.511719 C 281.84375 270.527344 281.972656 270.527344 282.097656 270.511719 C 282.441406 270.449219 282.722656 270.289062 282.945312 270.019531 C 283.167969 269.753906 283.277344 269.445312 283.273438 269.097656 Z M 286.382812 281.703125 L 285.285156 277.320312 C 285.210938 276.96875 285.007812 276.710938 284.6875 276.542969 C 284.320312 276.328125 283.925781 276.273438 283.511719 276.386719 C 283.1875 276.441406 282.914062 276.589844 282.695312 276.835938 C 282.472656 277.082031 282.355469 277.371094 282.335938 277.699219 C 282.328125 277.785156 282.328125 277.871094 282.335938 277.960938 L 283.433594 282.339844 C 283.539062 282.636719 283.722656 282.875 283.984375 283.050781 C 284.246094 283.230469 284.53125 283.308594 284.847656 283.296875 C 284.96875 283.316406 285.085938 283.316406 285.207031 283.296875 C 285.652344 283.199219 285.992188 282.953125 286.222656 282.558594 C 286.320312 282.386719 286.367188 282.199219 286.363281 282.003906 C 286.382812 281.910156 286.382812 281.816406 286.363281 281.722656 Z M 280.402344 257.804688 C 280.414062 257.710938 280.414062 257.617188 280.402344 257.523438 L 279.304688 253.140625 C 279.210938 252.792969 279.003906 252.535156 278.6875 252.367188 C 278.324219 252.15625 277.9375 252.101562 277.53125 252.207031 C 277.097656 252.300781 276.757812 252.53125 276.515625 252.902344 C 276.414062 253.089844 276.359375 253.289062 276.355469 253.5 C 276.335938 253.59375 276.335938 253.6875 276.355469 253.78125 L 277.453125 258.160156 C 277.542969 258.472656 277.722656 258.71875 277.988281 258.90625 C 278.25 259.089844 278.542969 259.175781 278.867188 259.15625 C 278.988281 259.175781 279.105469 259.175781 279.226562 259.15625 C 279.578125 259.097656 279.871094 258.929688 280.097656 258.652344 C 280.324219 258.378906 280.433594 258.0625 280.421875 257.703125 Z M 277.273438 246.570312 C 277.375 246.382812 277.429688 246.183594 277.433594 245.972656 C 277.453125 245.878906 277.453125 245.785156 277.433594 245.691406 L 276.335938 241.3125 C 276.207031 240.984375 275.992188 240.734375 275.6875 240.554688 C 275.386719 240.378906 275.0625 240.3125 274.714844 240.355469 C 274.367188 240.398438 274.066406 240.546875 273.820312 240.796875 C 273.574219 241.042969 273.429688 241.34375 273.386719 241.691406 C 273.375 241.777344 273.375 241.863281 273.386719 241.949219 L 274.480469 246.351562 C 274.582031 246.644531 274.757812 246.882812 275.011719 247.0625 C 275.265625 247.242188 275.546875 247.328125 275.855469 247.328125 C 275.988281 247.347656 276.121094 247.347656 276.257812 247.328125 C 276.730469 247.195312 277.074219 246.910156 277.292969 246.46875 Z M 281.898438 168.117188 L 311.402344 286.183594 L 308.671875 285.109375 C 307.148438 284.542969 305.570312 284.242188 303.945312 284.210938 C 302.316406 284.175781 300.730469 284.410156 299.183594 284.910156 C 297.863281 285.269531 296.65625 285.855469 295.558594 286.671875 C 294.460938 287.484375 293.546875 288.472656 292.824219 289.628906 C 292.210938 290.699219 291.90625 291.847656 291.90625 293.074219 C 291.910156 293.753906 292.011719 294.417969 292.203125 295.066406 C 292.582031 296.253906 293.171875 297.316406 293.976562 298.265625 C 294.78125 299.210938 295.738281 299.964844 296.851562 300.523438 L 299.921875 302.179688 L 298.566406 302.4375 L 87.71875 345.898438 L 87.839844 344.183594 C 87.839844 343.925781 87.839844 343.644531 87.839844 343.386719 C 87.792969 342.25 87.578125 341.144531 87.1875 340.070312 C 86.800781 339 86.261719 338.011719 85.566406 337.109375 C 84.871094 336.203125 84.054688 335.425781 83.121094 334.773438 C 82.183594 334.121094 81.171875 333.628906 80.082031 333.289062 C 78.648438 332.800781 77.175781 332.5 75.664062 332.394531 C 74.152344 332.289062 72.652344 332.375 71.164062 332.65625 C 69.675781 332.941406 68.246094 333.410156 66.878906 334.0625 C 65.511719 334.714844 64.253906 335.535156 63.097656 336.515625 L 61.105469 338.207031 L 60.90625 337.410156 L 31.359375 219.003906 L 34.109375 220.078125 C 35.539062 220.601562 37.007812 220.921875 38.523438 221.03125 C 40.039062 221.144531 41.539062 221.046875 43.027344 220.742188 C 44.515625 220.4375 45.933594 219.933594 47.28125 219.230469 C 48.628906 218.53125 49.851562 217.65625 50.957031 216.613281 C 51.90625 215.6875 52.644531 214.613281 53.171875 213.398438 C 53.699219 212.179688 53.976562 210.910156 54.007812 209.582031 L 54.007812 209.324219 C 53.945312 208.035156 53.636719 206.804688 53.074219 205.640625 C 52.515625 204.476562 51.75 203.464844 50.777344 202.613281 L 49.003906 200.9375 L 49.941406 200.761719 L 260.6875 157.261719 L 258.871094 159.890625 C 257.722656 161.492188 257.136719 163.277344 257.117188 165.246094 C 257.113281 165.867188 257.179688 166.476562 257.316406 167.078125 C 257.597656 168.3125 258.121094 169.433594 258.882812 170.441406 C 259.644531 171.453125 260.574219 172.261719 261.683594 172.875 C 263.09375 173.632812 264.59375 174.132812 266.175781 174.378906 C 267.761719 174.621094 269.339844 174.589844 270.914062 174.289062 C 272.617188 174.042969 274.21875 173.503906 275.726562 172.671875 C 277.234375 171.84375 278.546875 170.777344 279.664062 169.46875 L 281.660156 167.101562 Z M 292.664062 301.023438 C 291.507812 300.042969 290.601562 298.871094 289.953125 297.5 C 289.300781 296.132812 288.964844 294.691406 288.933594 293.175781 C 288.9375 291.53125 289.34375 289.988281 290.152344 288.554688 C 291.054688 287.078125 292.191406 285.808594 293.570312 284.753906 C 294.945312 283.699219 296.460938 282.929688 298.125 282.441406 C 301.097656 281.488281 304.117188 281.320312 307.175781 281.941406 L 280.023438 173.074219 C 277.484375 175.132812 274.601562 176.417969 271.371094 176.9375 C 269.425781 177.300781 267.476562 177.328125 265.519531 177.027344 C 263.566406 176.726562 261.714844 176.113281 259.96875 175.1875 C 259.09375 174.699219 258.300781 174.109375 257.585938 173.410156 C 256.871094 172.714844 256.257812 171.9375 255.75 171.078125 C 255.238281 170.21875 254.851562 169.308594 254.582031 168.347656 C 254.3125 167.386719 254.175781 166.40625 254.167969 165.40625 C 254.171875 163.957031 254.4375 162.554688 254.964844 161.203125 L 54.625 202.433594 C 55.40625 203.4375 56.003906 204.539062 56.421875 205.738281 C 56.835938 206.9375 57.050781 208.171875 57.058594 209.445312 C 57.027344 211.09375 56.6875 212.679688 56.035156 214.195312 C 55.382812 215.710938 54.464844 217.050781 53.289062 218.207031 C 52.132812 219.320312 50.855469 220.277344 49.464844 221.078125 C 48.070312 221.875 46.601562 222.496094 45.054688 222.933594 C 43.511719 223.371094 41.933594 223.613281 40.328125 223.664062 C 38.722656 223.714844 37.136719 223.566406 35.566406 223.226562 L 63.058594 333.148438 C 64.796875 332.023438 66.660156 331.171875 68.648438 330.585938 C 70.636719 330.003906 72.667969 329.714844 74.742188 329.722656 C 77.050781 329.707031 79.292969 330.101562 81.460938 330.898438 C 82.738281 331.300781 83.929688 331.875 85.039062 332.628906 C 86.144531 333.382812 87.121094 334.28125 87.960938 335.324219 C 88.800781 336.367188 89.472656 337.507812 89.976562 338.75 C 90.476562 339.988281 90.789062 341.277344 90.910156 342.609375 Z M 342.722656 293.355469 L 339.992188 292.320312 C 338.070312 291.59375 336.085938 291.207031 334.035156 291.164062 C 331.980469 291.121094 329.980469 291.417969 328.03125 292.058594 C 326.378906 292.53125 324.863281 293.28125 323.492188 294.3125 C 322.117188 295.34375 320.972656 296.582031 320.054688 298.035156 C 319.460938 299.089844 319.09375 300.21875 318.953125 301.421875 C 318.816406 302.621094 318.917969 303.804688 319.257812 304.964844 C 319.738281 306.457031 320.488281 307.796875 321.503906 308.984375 C 322.519531 310.175781 323.722656 311.128906 325.121094 311.839844 L 328.191406 313.492188 L 326.835938 313.75 L 69.117188 366.789062 L 69.238281 365.078125 C 69.71875 359.101562 65.929688 353.785156 59.589844 351.433594 C 57.796875 350.808594 55.953125 350.425781 54.0625 350.285156 C 52.167969 350.144531 50.289062 350.246094 48.421875 350.597656 C 46.558594 350.945312 44.769531 351.53125 43.054688 352.347656 C 41.339844 353.164062 39.761719 354.1875 38.316406 355.417969 L 36.324219 357.109375 L 36.125 356.3125 L 0.078125 211.953125 L 2.792969 213.027344 C 3.679688 213.359375 4.582031 213.625 5.507812 213.828125 C 6.433594 214.03125 7.367188 214.167969 8.308594 214.242188 C 9.253906 214.3125 10.195312 214.320312 11.140625 214.261719 C 12.085938 214.203125 13.019531 214.078125 13.949219 213.886719 C 14.875 213.695312 15.785156 213.441406 16.675781 213.125 C 17.566406 212.808594 18.429688 212.429688 19.269531 211.992188 C 20.109375 211.554688 20.914062 211.0625 21.683594 210.511719 C 22.453125 209.960938 23.179688 209.359375 23.863281 208.707031 C 25.09375 207.5 26.039062 206.101562 26.699219 204.511719 C 27.359375 202.921875 27.683594 201.265625 27.671875 199.546875 C 27.605469 197.929688 27.226562 196.390625 26.535156 194.929688 C 25.84375 193.464844 24.890625 192.195312 23.683594 191.121094 L 21.871094 189.46875 L 280.28125 136.226562 L 278.46875 138.855469 C 277.511719 140.160156 276.859375 141.601562 276.511719 143.175781 C 276.164062 144.753906 276.152344 146.335938 276.476562 147.917969 C 276.832031 149.480469 277.488281 150.902344 278.453125 152.183594 C 279.414062 153.464844 280.59375 154.492188 281.996094 155.269531 C 283.769531 156.222656 285.648438 156.851562 287.636719 157.15625 C 289.625 157.460938 291.605469 157.421875 293.582031 157.042969 C 295.703125 156.730469 297.707031 156.0625 299.589844 155.035156 C 301.472656 154.007812 303.117188 152.683594 304.527344 151.066406 L 306.519531 148.695312 L 306.757812 149.652344 Z M 317.425781 296.921875 C 318.53125 295.136719 319.921875 293.617188 321.59375 292.351562 C 323.269531 291.085938 325.117188 290.167969 327.132812 289.589844 C 330.910156 288.371094 334.730469 288.207031 338.597656 289.09375 L 304.902344 154.53125 C 303.359375 155.851562 301.664062 156.9375 299.816406 157.789062 C 297.972656 158.644531 296.046875 159.230469 294.039062 159.550781 C 291.691406 159.988281 289.335938 160.019531 286.976562 159.652344 C 284.617188 159.28125 282.386719 158.53125 280.28125 157.398438 C 279.546875 157 278.851562 156.53125 278.203125 156 C 277.550781 155.46875 276.957031 154.882812 276.417969 154.238281 C 275.878906 153.597656 275.402344 152.910156 274.992188 152.175781 C 274.582031 151.445312 274.246094 150.679688 273.976562 149.886719 C 273.710938 149.089844 273.519531 148.277344 273.40625 147.445312 C 273.292969 146.613281 273.257812 145.777344 273.300781 144.941406 C 273.34375 144.101562 273.464844 143.277344 273.664062 142.460938 C 273.863281 141.644531 274.132812 140.855469 274.480469 140.09375 L 27.492188 190.960938 C 28.058594 191.652344 28.554688 192.386719 28.984375 193.171875 C 29.410156 193.957031 29.761719 194.773438 30.03125 195.625 C 30.304688 196.476562 30.496094 197.34375 30.601562 198.230469 C 30.710938 199.117188 30.730469 200.003906 30.671875 200.894531 C 30.609375 201.785156 30.464844 202.664062 30.234375 203.527344 C 30.007812 204.390625 29.699219 205.222656 29.3125 206.03125 C 28.929688 206.835938 28.46875 207.597656 27.9375 208.316406 C 27.40625 209.03125 26.8125 209.695312 26.15625 210.300781 C 24.71875 211.667969 23.136719 212.839844 21.410156 213.8125 C 19.683594 214.785156 17.859375 215.535156 15.945312 216.054688 C 14.03125 216.578125 12.085938 216.855469 10.101562 216.894531 C 8.117188 216.929688 6.160156 216.726562 4.226562 216.277344 L 38.117188 352.089844 C 40.257812 350.632812 42.5625 349.519531 45.035156 348.753906 C 47.511719 347.992188 50.042969 347.609375 52.632812 347.609375 C 55.429688 347.589844 58.140625 348.0625 60.765625 349.023438 C 67.625 351.574219 71.949219 356.992188 72.1875 363.464844 L 320.792969 312.296875 C 320.214844 311.871094 319.675781 311.398438 319.183594 310.875 C 318.6875 310.355469 318.246094 309.792969 317.851562 309.191406 C 317.460938 308.589844 317.125 307.957031 316.847656 307.292969 C 316.566406 306.632812 316.351562 305.949219 316.195312 305.25 C 316.039062 304.546875 315.949219 303.835938 315.921875 303.121094 C 315.894531 302.402344 315.929688 301.6875 316.03125 300.976562 C 316.132812 300.265625 316.296875 299.570312 316.523438 298.886719 C 316.753906 298.207031 317.039062 297.550781 317.382812 296.921875 Z M 265.589844 199.324219 C 265.695312 199.140625 265.75 198.941406 265.75 198.726562 C 265.769531 198.636719 265.769531 198.542969 265.75 198.449219 L 264.652344 194.066406 C 264.558594 193.726562 264.359375 193.46875 264.054688 193.289062 C 263.691406 193.085938 263.304688 193.03125 262.898438 193.132812 C 262.464844 193.226562 262.125 193.457031 261.882812 193.828125 C 261.777344 194.015625 261.726562 194.214844 261.722656 194.425781 C 261.703125 194.519531 261.703125 194.613281 261.722656 194.703125 L 262.820312 199.105469 C 262.917969 199.410156 263.097656 199.652344 263.363281 199.835938 C 263.625 200.015625 263.914062 200.097656 264.234375 200.082031 C 264.347656 200.101562 264.460938 200.101562 264.574219 200.082031 C 264.988281 199.933594 265.296875 199.664062 265.492188 199.265625 Z M 274.542969 235.175781 C 274.644531 234.984375 274.699219 234.777344 274.699219 234.558594 C 274.710938 234.464844 274.710938 234.375 274.699219 234.28125 L 273.605469 229.878906 C 273.546875 229.707031 273.457031 229.550781 273.339844 229.410156 C 273.21875 229.273438 273.082031 229.160156 272.921875 229.074219 C 272.757812 228.984375 272.589844 228.929688 272.40625 228.910156 C 272.226562 228.886719 272.046875 228.898438 271.871094 228.941406 C 271.429688 229.015625 271.089844 229.242188 270.851562 229.621094 C 270.734375 229.808594 270.675781 230.015625 270.675781 230.238281 C 270.65625 230.335938 270.65625 230.4375 270.675781 230.535156 L 271.769531 234.917969 C 271.863281 235.265625 272.070312 235.523438 272.386719 235.695312 C 272.621094 235.835938 272.875 235.910156 273.144531 235.914062 C 273.265625 235.9375 273.386719 235.9375 273.503906 235.914062 C 273.933594 235.773438 274.246094 235.5 274.441406 235.097656 Z M 242.027344 228.644531 C 241.972656 228.417969 241.878906 228.210938 241.742188 228.019531 C 241.605469 227.832031 241.4375 227.679688 241.238281 227.558594 C 241.039062 227.4375 240.824219 227.363281 240.59375 227.328125 C 240.363281 227.296875 240.136719 227.308594 239.914062 227.371094 L 221.132812 231.054688 C 220.617188 231.140625 220.210938 231.402344 219.917969 231.832031 C 219.746094 232.097656 219.660156 232.390625 219.65625 232.707031 C 219.640625 232.851562 219.640625 233 219.65625 233.144531 L 219.777344 233.664062 C 219.820312 233.898438 219.910156 234.117188 220.046875 234.316406 C 220.183594 234.515625 220.355469 234.679688 220.558594 234.804688 C 220.761719 234.933594 220.984375 235.011719 221.222656 235.046875 C 221.460938 235.078125 221.699219 235.0625 221.929688 234.996094 L 229.066406 233.601562 L 234.050781 255.09375 C 234.085938 255.289062 234.15625 255.46875 234.253906 255.640625 C 234.355469 255.808594 234.484375 255.957031 234.636719 256.082031 C 234.792969 256.203125 234.960938 256.296875 235.148438 256.363281 C 235.335938 256.425781 235.527344 256.453125 235.726562 256.449219 L 236.164062 256.449219 L 236.960938 256.269531 C 237.523438 256.1875 237.96875 255.914062 238.296875 255.453125 C 238.472656 255.195312 238.558594 254.90625 238.554688 254.597656 C 238.574219 254.457031 238.574219 254.316406 238.554688 254.179688 L 233.53125 232.765625 L 240.648438 231.371094 C 241.164062 231.277344 241.574219 231.015625 241.886719 230.597656 C 242.136719 230.1875 242.203125 229.746094 242.085938 229.28125 Z M 224.382812 256.347656 C 224.332031 256.121094 224.238281 255.910156 224.105469 255.71875 C 223.96875 255.527344 223.800781 255.371094 223.601562 255.25 C 223.402344 255.128906 223.1875 255.050781 222.957031 255.015625 C 222.722656 254.980469 222.496094 254.996094 222.269531 255.054688 L 207.476562 257.980469 L 205.582031 250.015625 L 218.160156 247.546875 C 218.675781 247.457031 219.082031 247.195312 219.378906 246.769531 C 219.546875 246.492188 219.632812 246.195312 219.636719 245.871094 C 219.65625 245.734375 219.65625 245.59375 219.636719 245.453125 L 219.496094 244.875 C 219.449219 244.644531 219.359375 244.433594 219.226562 244.242188 C 219.089844 244.046875 218.921875 243.890625 218.722656 243.765625 C 218.523438 243.640625 218.308594 243.5625 218.074219 243.527344 C 217.84375 243.492188 217.613281 243.503906 217.382812 243.5625 L 204.726562 246.070312 L 203.011719 238.78125 L 217.722656 235.894531 C 218.238281 235.804688 218.640625 235.546875 218.9375 235.117188 C 219.109375 234.847656 219.195312 234.558594 219.199219 234.242188 C 219.214844 234.09375 219.214844 233.949219 219.199219 233.800781 L 219.058594 233.226562 C 219.011719 232.996094 218.921875 232.78125 218.785156 232.589844 C 218.652344 232.398438 218.484375 232.238281 218.285156 232.113281 C 218.085938 231.988281 217.871094 231.910156 217.636719 231.875 C 217.402344 231.839844 217.171875 231.851562 216.945312 231.910156 L 199.441406 235.355469 C 198.929688 235.453125 198.515625 235.710938 198.207031 236.132812 C 198.035156 236.402344 197.949219 236.691406 197.945312 237.007812 C 197.929688 237.15625 197.929688 237.300781 197.945312 237.449219 L 203.527344 261.167969 C 203.609375 261.5625 203.808594 261.886719 204.125 262.136719 C 204.441406 262.390625 204.800781 262.511719 205.203125 262.503906 L 205.660156 262.503906 L 223.164062 259.078125 C 223.6875 259 224.09375 258.738281 224.382812 258.300781 C 224.632812 257.890625 224.699219 257.453125 224.582031 256.984375 Z M 262.898438 187.257812 C 262.90625 187.167969 262.90625 187.082031 262.898438 186.996094 L 261.800781 182.617188 C 261.738281 182.441406 261.644531 182.289062 261.519531 182.148438 C 261.398438 182.011719 261.253906 181.898438 261.09375 181.8125 C 260.929688 181.726562 260.753906 181.671875 260.570312 181.648438 C 260.390625 181.625 260.207031 181.636719 260.027344 181.679688 C 259.582031 181.777344 259.242188 182.023438 259.011719 182.417969 C 258.90625 182.59375 258.855469 182.789062 258.851562 182.992188 C 258.84375 183.085938 258.84375 183.179688 258.851562 183.273438 L 259.949219 187.65625 C 260.046875 187.960938 260.226562 188.203125 260.488281 188.390625 C 260.75 188.574219 261.042969 188.660156 261.363281 188.648438 C 261.476562 188.667969 261.589844 188.667969 261.703125 188.648438 C 262.027344 188.574219 262.292969 188.402344 262.5 188.144531 C 262.707031 187.886719 262.8125 187.589844 262.820312 187.257812 Z M 268.699219 210.5 C 268.707031 210.414062 268.707031 210.328125 268.699219 210.242188 L 267.605469 205.859375 C 267.546875 205.679688 267.457031 205.515625 267.335938 205.367188 C 267.214844 205.222656 267.070312 205.105469 266.902344 205.015625 C 266.734375 204.925781 266.554688 204.871094 266.367188 204.851562 C 266.175781 204.832031 265.992188 204.851562 265.808594 204.902344 C 265.484375 204.964844 265.21875 205.121094 265 205.371094 C 264.785156 205.621094 264.667969 205.910156 264.652344 206.238281 C 264.644531 206.324219 264.644531 206.410156 264.652344 206.496094 L 265.75 210.878906 C 265.832031 211.226562 266.03125 211.484375 266.347656 211.65625 C 266.59375 211.800781 266.859375 211.871094 267.144531 211.875 C 267.269531 211.894531 267.398438 211.894531 267.523438 211.875 C 267.84375 211.800781 268.105469 211.632812 268.3125 211.378906 C 268.515625 211.121094 268.621094 210.828125 268.621094 210.5 Z M 271.550781 221.890625 C 271.5625 221.804688 271.5625 221.71875 271.550781 221.632812 L 270.453125 217.25 C 270.371094 216.90625 270.171875 216.644531 269.855469 216.476562 C 269.503906 216.277344 269.132812 216.226562 268.738281 216.316406 C 268.414062 216.371094 268.140625 216.519531 267.921875 216.765625 C 267.703125 217.011719 267.582031 217.300781 267.5625 217.628906 C 267.554688 217.714844 267.554688 217.800781 267.5625 217.890625 L 268.660156 222.269531 C 268.757812 222.574219 268.9375 222.820312 269.199219 223.003906 C 269.464844 223.191406 269.753906 223.277344 270.074219 223.265625 C 270.203125 223.285156 270.328125 223.285156 270.453125 223.265625 C 270.757812 223.175781 271.003906 223 271.191406 222.746094 C 271.378906 222.492188 271.472656 222.207031 271.472656 221.890625 Z M 271.550781 221.890625 " fill-opacity="1" fill-rule="nonzero"/></g></svg>