<svg xmlns="http://www.w3.org/2000/svg" xmlns:xlink="http://www.w3.org/1999/xlink" width="500" zoomAndPan="magnify" viewBox="0 0 375 374.999991" height="500" preserveAspectRatio="xMidYMid meet" version="1.0"><defs><clipPath id="e58eda6b3f"><path d="M 16.800781 16.316406 L 358.050781 16.316406 L 358.050781 358 L 16.800781 358 Z M 16.800781 16.316406 " clip-rule="nonzero"/></clipPath><clipPath id="c8baf529e0"><path d="M 16.800781 22 L 352.800781 22 L 352.800781 358.734375 L 16.800781 358.734375 Z M 16.800781 22 " clip-rule="nonzero"/></clipPath><clipPath id="edbb7f9a5c"><path d="M 39.445312 45.871094 L 244.945312 45.871094 L 244.945312 251.371094 L 39.445312 251.371094 Z M 39.445312 45.871094 " clip-rule="nonzero"/></clipPath><clipPath id="5762ffc08b"><path d="M 124.464844 132.066406 L 329.964844 132.066406 L 329.964844 337.566406 L 124.464844 337.566406 Z M 124.464844 132.066406 " clip-rule="nonzero"/></clipPath></defs><g clip-path="url(#e58eda6b3f)"><path fill="#545454" d="M 358.050781 187.320312 C 358.050781 281.570312 281.695312 357.835938 187.421875 357.835938 C 93.160156 357.835938 16.800781 281.570312 16.800781 187.320312 C 16.800781 93.140625 93.160156 16.792969 187.421875 16.792969 C 281.6875 16.792969 358.050781 93.140625 358.050781 187.320312 Z M 358.050781 187.320312 " fill-opacity="1" fill-rule="nonzero"/></g><path fill="#ffdc00" d="M 250.109375 251.257812 L 265.558594 285.222656 C 260.109375 288.171875 253.875 290.585938 246.769531 292.429688 C 239.6875 294.292969 232.792969 295.222656 226.144531 295.222656 C 217.542969 295.222656 206.144531 293.195312 191.863281 289.171875 C 177.59375 285.125 167.015625 283.097656 160.152344 283.097656 C 148.53125 283.097656 136.703125 287.234375 124.613281 295.523438 L 109.324219 260.976562 C 120.070312 253.265625 127.816406 245.046875 132.523438 236.359375 C 137.234375 227.652344 139.601562 219.355469 139.601562 211.457031 C 139.601562 208.914062 139.421875 206.175781 139.035156 203.332031 L 109.316406 203.332031 L 109.316406 171.785156 L 131.746094 171.785156 C 127.828125 160.566406 125.882812 149.179688 125.882812 137.671875 C 125.882812 127.304688 128.710938 117.40625 134.386719 107.992188 C 140.046875 98.574219 148.070312 91.410156 158.449219 86.511719 C 168.835938 81.609375 180.136719 79.15625 192.425781 79.15625 C 211.191406 79.15625 226.144531 83.898438 237.28125 93.371094 C 248.414062 102.835938 255.214844 116.414062 257.714844 134.121094 L 218.984375 139.804688 C 217.175781 129.617188 213.894531 122.300781 209.144531 117.824219 C 204.378906 113.34375 198.414062 111.121094 191.28125 111.121094 C 183.664062 111.121094 177.332031 113.65625 172.304688 118.75 C 167.246094 123.84375 164.726562 130.242188 164.726562 137.953125 C 164.726562 141.945312 165.421875 147.226562 166.800781 153.796875 C 168.179688 160.359375 169.867188 166.351562 171.863281 171.777344 L 216.441406 171.777344 L 216.441406 203.316406 L 178.433594 203.316406 C 178.726562 205.410156 178.867188 207.503906 178.867188 209.601562 C 178.867188 217.113281 177.441406 224.085938 174.578125 230.441406 C 171.746094 236.8125 165.890625 245.21875 157.027344 255.585938 C 162.269531 252.910156 168.84375 251.601562 176.738281 251.601562 C 180.070312 251.601562 183.0625 251.765625 185.71875 252.164062 C 187.050781 252.347656 190.960938 253.242188 197.4375 254.882812 C 208.953125 257.832031 216.808594 259.304688 221 259.304688 C 228.390625 259.253906 238.117188 256.578125 250.109375 251.257812 Z M 250.109375 251.257812 " fill-opacity="1" fill-rule="nonzero"/><g clip-path="url(#c8baf529e0)"><path fill="#ffdc00" d="M 352.800781 190.367188 C 352.800781 283.167969 277.621094 358.261719 184.796875 358.261719 C 91.984375 358.261719 16.800781 283.164062 16.800781 190.367188 C 16.800781 97.632812 91.984375 22.457031 184.796875 22.457031 C 277.613281 22.457031 352.800781 97.632812 352.800781 190.367188 Z M 352.800781 190.367188 " fill-opacity="1" fill-rule="nonzero"/></g><path fill="#ffdc00" d="M 246.519531 253.320312 L 261.730469 286.761719 C 256.367188 289.667969 250.226562 292.042969 243.234375 293.859375 C 236.257812 295.691406 229.46875 296.609375 222.921875 296.609375 C 214.457031 296.609375 203.230469 294.613281 189.167969 290.648438 C 175.117188 286.667969 164.703125 284.671875 157.949219 284.671875 C 146.503906 284.671875 134.859375 288.742188 122.957031 296.90625 L 107.902344 262.890625 C 118.480469 255.296875 126.105469 247.207031 130.746094 238.648438 C 135.382812 230.078125 137.710938 221.90625 137.710938 214.128906 C 137.710938 211.625 137.535156 208.929688 137.15625 206.128906 L 107.894531 206.128906 L 107.894531 175.070312 L 129.976562 175.070312 C 126.121094 164.019531 124.203125 152.8125 124.203125 141.476562 C 124.203125 131.269531 126.988281 121.527344 132.578125 112.257812 C 138.152344 102.980469 146.050781 95.929688 156.269531 91.105469 C 166.496094 86.277344 177.625 83.863281 189.726562 83.863281 C 208.203125 83.863281 222.921875 88.53125 233.890625 97.859375 C 244.851562 107.179688 251.546875 120.550781 254.011719 137.980469 L 215.875 143.578125 C 214.09375 133.546875 210.863281 126.34375 206.183594 121.9375 C 201.492188 117.523438 195.617188 115.335938 188.597656 115.335938 C 181.09375 115.335938 174.859375 117.832031 169.910156 122.851562 C 164.933594 127.863281 162.449219 134.160156 162.449219 141.753906 C 162.449219 145.6875 163.132812 150.886719 164.492188 157.355469 C 165.851562 163.816406 167.515625 169.71875 169.476562 175.0625 L 213.371094 175.0625 L 213.371094 206.113281 L 175.949219 206.113281 C 176.234375 208.175781 176.375 210.238281 176.375 212.304688 C 176.375 219.699219 174.96875 226.566406 172.152344 232.824219 C 169.363281 239.09375 163.597656 247.375 154.871094 257.582031 C 160.03125 254.945312 166.503906 253.65625 174.277344 253.65625 C 177.558594 253.65625 180.503906 253.820312 183.121094 254.214844 C 184.429688 254.390625 188.28125 255.273438 194.65625 256.886719 C 205.996094 259.792969 213.730469 261.246094 217.859375 261.246094 C 225.136719 261.191406 234.710938 258.558594 246.519531 253.320312 Z M 246.519531 253.320312 " fill-opacity="1" fill-rule="nonzero"/><g clip-path="url(#edbb7f9a5c)"><path fill="#ffffff" d="M 225.679688 129.355469 L 161.460938 129.355469 L 161.460938 65.136719 C 161.460938 54.496094 152.835938 45.871094 142.195312 45.871094 C 131.554688 45.871094 122.929688 54.496094 122.929688 65.136719 L 122.929688 129.355469 L 58.710938 129.355469 C 48.070312 129.355469 39.445312 137.980469 39.445312 148.621094 C 39.445312 159.261719 48.070312 167.886719 58.710938 167.886719 L 122.929688 167.886719 L 122.929688 232.105469 C 122.929688 242.746094 131.554688 251.371094 142.195312 251.371094 C 152.835938 251.371094 161.460938 242.746094 161.460938 232.105469 L 161.460938 167.886719 L 225.679688 167.886719 C 236.320312 167.886719 244.945312 159.261719 244.945312 148.621094 C 244.945312 137.980469 236.320312 129.355469 225.679688 129.355469 Z M 225.679688 129.355469 " fill-opacity="1" fill-rule="nonzero"/></g><g clip-path="url(#5762ffc08b)"><path fill="#ffffff" d="M 310.699219 215.550781 L 246.480469 215.550781 L 246.480469 151.332031 C 246.480469 140.691406 237.855469 132.066406 227.214844 132.066406 C 216.574219 132.066406 207.949219 140.691406 207.949219 151.332031 L 207.949219 215.550781 L 143.730469 215.550781 C 133.089844 215.550781 124.464844 224.175781 124.464844 234.816406 C 124.464844 245.457031 133.089844 254.082031 143.730469 254.082031 L 207.949219 254.082031 L 207.949219 318.300781 C 207.949219 328.941406 216.574219 337.566406 227.214844 337.566406 C 237.855469 337.566406 246.480469 328.941406 246.480469 318.300781 L 246.480469 254.082031 L 310.699219 254.082031 C 321.34375 254.082031 329.964844 245.457031 329.964844 234.816406 C 329.964844 224.175781 321.34375 215.550781 310.699219 215.550781 Z M 310.699219 215.550781 " fill-opacity="1" fill-rule="nonzero"/></g></svg>